<svg width="56" height="56" viewBox="0 0 56 56" fill="none" xmlns="http://www.w3.org/2000/svg">
<rect x="4" y="4" width="48" height="48" rx="24" fill="#D1FAE3"/>
<rect x="4" y="4" width="48" height="48" rx="24" stroke="#ECFDF4" stroke-width="8"/>
<path d="M32.7 34.9801H23.3C22.88 34.9801 22.41 34.6501 22.27 34.2501L18.13 22.6701C17.54 21.0101 18.23 20.5001 19.65 21.5201L23.55 24.3101C24.2 24.7601 24.94 24.5301 25.22 23.8001L26.98 19.1101C27.54 17.6101 28.47 17.6101 29.03 19.1101L30.79 23.8001C31.07 24.5301 31.81 24.7601 32.45 24.3101L36.11 21.7001C37.67 20.5801 38.42 21.1501 37.78 22.9601L33.74 34.2701C33.59 34.6501 33.12 34.9801 32.7 34.9801Z" stroke="#05B354" stroke-width="1.5" stroke-linecap="round" stroke-linejoin="round"/>
<path d="M22.5 38H33.5" stroke="#05B354" stroke-width="1.5" stroke-linecap="round" stroke-linejoin="round"/>
<path d="M25.5 30H30.5" stroke="#05B354" stroke-width="1.5" stroke-linecap="round" stroke-linejoin="round"/>
</svg>
