<svg width="677" height="663" viewBox="0 0 677 663" fill="none" xmlns="http://www.w3.org/2000/svg">
<g opacity="0.4">
<path fill-rule="evenodd" clip-rule="evenodd" d="M551.07 216.287H100.959C79.1793 216.287 60.7054 234.748 61.3586 257.237L69.5721 537.747C70.2341 560.223 87.4233 578.697 109.177 578.697H542.843C564.479 578.697 581.785 560.262 582.434 537.747L590.652 257.237C591.319 234.726 572.84 216.287 551.07 216.287ZM551.07 238.654H100.959C91.0684 238.654 82.6894 247.042 82.9899 257.237L91.2034 537.734C91.4909 547.781 99.4561 556.317 109.177 556.317H542.843C552.55 556.317 560.52 547.951 560.816 537.734L569.034 257.237C569.33 247.02 560.956 238.654 551.07 238.654Z" fill="#FFCC5E"/>
<path fill-rule="evenodd" clip-rule="evenodd" d="M82.9766 257.241C82.9766 248.3 89.1694 240.783 97.3394 239.037L97.7618 238.954L98.206 238.88L99.0901 238.758L100 238.684L100.471 238.671L100.924 238.658H551.039L551.492 238.671L551.962 238.684L552.868 238.758L553.752 238.88C562.349 240.252 568.982 247.982 568.982 257.241L560.768 537.738C560.472 547.959 552.515 556.321 542.795 556.321H109.133C99.4298 556.321 91.4514 547.785 91.1596 537.738L82.9766 257.241Z" fill="#FFE7B5"/>
<path fill-rule="evenodd" clip-rule="evenodd" d="M519.064 256.762H424.239C421.704 256.762 419.644 258.9 419.644 261.517V355.694C419.644 358.312 421.704 360.45 424.239 360.45H519.064C521.586 360.45 523.663 358.312 523.663 355.694V261.517C523.663 258.9 521.586 256.762 519.064 256.762ZM136.373 370.336H224.344C226.404 370.336 228.098 371.773 228.098 373.532C228.098 375.279 226.404 376.716 224.344 376.716H136.373C134.304 376.716 132.623 375.279 132.623 373.532C132.628 371.773 134.309 370.336 136.373 370.336ZM136.373 381.894H176.609C178.677 381.894 180.359 383.331 180.359 385.09C180.359 386.832 178.677 388.27 176.609 388.27H136.373C134.304 388.27 132.623 386.832 132.623 385.09C132.628 383.331 134.309 381.894 136.373 381.894ZM373.42 256.762H278.594C276.064 256.762 274 258.9 274 261.517V355.694C274 358.312 276.064 360.45 278.594 360.45H373.424C375.955 360.45 378.015 358.312 378.015 355.694V261.517C378.01 258.9 375.95 256.762 373.42 256.762ZM282.017 370.336H369.997C372.057 370.336 373.751 371.773 373.751 373.532C373.751 375.279 372.057 376.716 369.997 376.716H282.017C279.957 376.716 278.263 375.279 278.263 373.532C278.263 371.773 279.957 370.336 282.017 370.336ZM282.017 381.894H322.244C324.322 381.894 326.003 383.331 326.003 385.09C326.003 386.832 324.322 388.27 322.244 388.27H282.017C279.957 388.27 278.263 386.832 278.263 385.09C278.263 383.331 279.957 381.894 282.017 381.894ZM427.666 370.336H515.641C517.706 370.336 519.387 371.773 519.387 373.532C519.387 375.279 517.706 376.716 515.641 376.716H427.666C425.602 376.716 423.908 375.279 423.908 373.532C423.908 371.773 425.602 370.336 427.666 370.336ZM427.666 381.894H467.893C469.962 381.894 471.66 383.331 471.66 385.09C471.66 386.832 469.966 388.27 467.893 388.27H427.666C425.602 388.27 423.908 386.832 423.908 385.09C423.908 383.331 425.602 381.894 427.666 381.894ZM227.776 256.762H132.95C130.42 256.762 128.355 258.9 128.355 261.517V355.694C128.355 358.312 130.42 360.45 132.95 360.45H227.776C230.306 360.45 232.37 358.312 232.37 355.694V261.517C232.37 258.9 230.306 256.762 227.776 256.762ZM519.064 406.722H424.239C421.704 406.722 419.644 408.856 419.644 411.473V505.654C419.644 508.272 421.704 510.406 424.239 510.406H519.064C521.586 510.406 523.663 508.272 523.663 505.654V411.473C523.663 408.856 521.586 406.722 519.064 406.722ZM136.373 520.291H224.344C226.404 520.291 228.098 521.729 228.098 523.484C228.098 525.23 226.404 526.667 224.344 526.667H136.373C134.304 526.667 132.623 525.23 132.623 523.484C132.628 521.729 134.309 520.291 136.373 520.291ZM136.373 531.854H176.609C178.677 531.854 180.359 533.291 180.359 535.046C180.359 536.793 178.677 538.23 176.609 538.23H136.373C134.304 538.23 132.623 536.793 132.623 535.046C132.628 533.291 134.309 531.854 136.373 531.854ZM373.42 406.722H278.594C276.064 406.722 274 408.856 274 411.473V505.654C274 508.272 276.064 510.406 278.594 510.406H373.424C375.955 510.406 378.015 508.272 378.015 505.654V411.473C378.01 408.856 375.95 406.722 373.42 406.722ZM282.017 520.291H369.997C372.057 520.291 373.751 521.729 373.751 523.484C373.751 525.23 372.057 526.667 369.997 526.667H282.017C279.957 526.667 278.263 525.23 278.263 523.484C278.263 521.729 279.957 520.291 282.017 520.291ZM282.017 531.854H322.244C324.322 531.854 326.003 533.291 326.003 535.046C326.003 536.793 324.322 538.23 322.244 538.23H282.017C279.957 538.23 278.263 536.793 278.263 535.046C278.263 533.291 279.957 531.854 282.017 531.854ZM227.776 406.722H132.95C130.42 406.722 128.355 408.856 128.355 411.473V505.654C128.355 508.272 130.42 510.406 132.95 510.406H227.776C230.306 510.406 232.37 508.272 232.37 505.654V411.473C232.37 408.856 230.306 406.722 227.776 406.722ZM427.666 520.291H515.641C517.706 520.291 519.387 521.729 519.387 523.484C519.387 525.23 517.706 526.667 515.641 526.667H427.666C425.602 526.667 423.908 525.23 423.908 523.484C423.908 521.729 425.602 520.291 427.666 520.291ZM427.666 531.854H467.893C469.962 531.854 471.66 533.291 471.66 535.046C471.66 536.793 469.966 538.23 467.893 538.23H427.666C425.602 538.23 423.908 536.793 423.908 535.046C423.908 533.291 425.602 531.854 427.666 531.854Z" fill="white"/>
<path fill-rule="evenodd" clip-rule="evenodd" d="M289.216 483.021H297.939V485.012H289.216V483.021ZM289.216 479.324H297.939V481.301H289.216V479.324ZM289.216 475.618H297.939V477.595H289.216V475.618ZM301.009 428.253H286.15V488.874H301.009V428.253ZM297.944 457.279H289.22V431.68H297.944V457.279ZM293.58 462.557C296.023 462.557 298.013 464.547 298.013 466.995C298.013 469.451 296.023 471.428 293.58 471.428C291.137 471.428 289.146 469.451 289.146 466.995C289.146 464.547 291.132 462.557 293.58 462.557ZM306.658 483.021H315.381V485.012H306.658V483.021ZM306.658 479.324H315.381V481.301H306.658V479.324ZM306.658 475.618H315.381V477.595H306.658V475.618ZM318.451 428.253H303.588V488.874H318.451V428.253ZM315.381 457.279H306.658V431.68H315.381V457.279ZM311.022 462.557C313.465 462.557 315.455 464.547 315.455 466.995C315.455 469.451 313.465 471.428 311.022 471.428C308.574 471.428 306.584 469.451 306.584 466.995C306.588 464.547 308.574 462.557 311.022 462.557ZM324.104 483.021H332.823V485.012H324.104V483.021ZM324.104 479.324H332.823V481.301H324.104V479.324ZM324.104 475.618H332.823V477.595H324.104V475.618ZM335.893 428.253H321.029V488.874H335.893V428.253ZM332.823 457.279H324.104V431.68H332.823V457.279ZM328.468 462.557C330.911 462.557 332.901 464.547 332.901 466.995C332.901 469.451 330.911 471.428 328.468 471.428C326.007 471.428 324.026 469.451 324.026 466.995C324.026 464.547 326.003 462.557 328.468 462.557ZM353.056 483.383L361.531 481.38L361.988 483.309L353.505 485.312L353.056 483.383ZM352.194 479.768L360.682 477.765L361.135 479.694L352.647 481.693L352.194 479.768ZM351.349 476.158L359.837 474.155L360.294 476.084L351.802 478.087L351.349 476.158ZM351.937 427.356L337.465 430.77L351.397 489.767L365.864 486.353L351.937 427.356ZM355.621 456.308L347.133 458.311L341.25 433.4L349.738 431.397L355.621 456.308ZM352.586 462.461C354.972 461.895 357.354 463.372 357.921 465.754C358.482 468.136 357.015 470.522 354.628 471.084C352.246 471.65 349.864 470.174 349.298 467.792C348.732 465.41 350.208 463.014 352.586 462.461ZM181.665 267.166C181.073 267.105 180.659 266.573 180.72 265.999C180.781 265.406 181.299 264.988 181.887 265.054C191.668 266.112 200.361 270.802 206.593 277.753C212.76 284.616 216.501 293.709 216.501 303.656C216.501 314.378 212.15 324.094 205.125 331.123C198.567 337.678 189.687 341.893 179.823 342.446V347.825H187.252C188.446 347.825 189.413 348.796 189.413 349.989C189.413 351.178 188.441 352.162 187.252 352.162H168.051C166.858 352.162 165.878 351.178 165.878 349.989C165.878 348.796 166.862 347.825 168.051 347.825H175.481V342.446C170.29 342.15 165.342 340.835 160.879 338.701C155.596 336.171 150.988 332.482 147.369 327.979C146.999 327.509 147.06 326.847 147.526 326.481C147.979 326.115 148.654 326.185 149.024 326.642C151.777 330.069 155.126 332.992 158.923 335.252L161.162 331.21L163.017 332.256L160.778 336.284C161.127 336.458 161.458 336.619 161.802 336.789C166.592 339.089 171.971 340.378 177.65 340.378C187.792 340.378 196.968 336.262 203.614 329.616C210.26 322.984 214.358 313.795 214.358 303.661C214.358 294.254 210.822 285.666 204.999 279.168C202.504 276.394 199.608 273.999 196.381 272.083L194.281 275.88L192.422 274.835L194.521 271.05C190.593 269.008 186.255 267.671 181.665 267.166Z" fill="#FFE7B5"/>
<path fill-rule="evenodd" clip-rule="evenodd" d="M192.805 286.267C194.647 286.476 194.978 286.215 195.492 285.492L194.343 284.373C193.863 283.663 194.012 283.258 193.676 282.618C192.239 282.692 191.873 283.515 193.04 284.164C194.303 284.878 193.384 285.035 193.384 285.035C192.966 285.344 193.136 284.852 192.875 285.453C192.805 285.618 192.805 286.045 192.805 286.267ZM190.654 285.862C191.577 285.888 191.468 285.875 192.091 285.418C192.709 284.978 192.927 285.039 192.683 284.203C191.416 283.589 190.667 284.656 190.654 285.862ZM174.061 288.366C174.371 289.829 175.363 288.34 175.363 288.327C175.821 287.909 175.525 288.61 175.829 287.909C175.808 287.896 175.795 287.726 175.403 287.761C174.945 287.813 175.189 288.031 174.641 288.205C174.222 288.34 174.514 288.096 174.061 288.366ZM172.977 288.366C172.755 288.353 172.816 288.305 172.868 288.549L172.785 288.993L173.408 288.858L172.977 288.366ZM172.868 288.549C172.598 288.871 172.681 288.488 172.698 289.102C173.587 289.154 173.19 289.128 173.412 288.858L173.452 288.492L173.169 288.371H172.986L172.868 288.549ZM148.497 292.434C147.143 295.909 146.411 299.702 146.411 303.661C146.411 320.92 160.404 334.899 177.65 334.899C187.226 334.899 195.801 330.588 201.524 323.807L201.28 323.785C201.045 322.749 201.48 322.126 200.936 321.281C200.448 320.519 200.013 320.458 200.004 319.343C200.004 318.912 200.061 318.211 200.004 317.819C199.856 316.704 198.284 316.761 199.316 314.862C200.383 312.872 200.461 313.717 198.985 311.138C197.67 308.83 198.036 309.566 198.223 306.64C194.582 306.483 196.18 305.168 194.299 305.756C193.402 306.039 194.264 306.361 192.461 306.322C192.043 306.322 191.695 306.309 191.281 306.374C191.033 306.409 190.754 306.509 190.336 306.509C189.278 306.518 188.799 305.464 187.745 304.275C186.286 302.629 186.708 303.352 186.708 300.612C186.856 299.885 187.105 300.917 187.353 299.397C186.909 299.019 186.612 299.424 186.43 298.021C186.978 297.738 187.706 297.124 188.259 296.719C190.123 295.369 189.914 296.079 189.953 293.806C191.965 292.098 192.344 293.379 193.994 292.773C195.54 292.186 196.254 292.024 198.454 292.064L198.51 293.806C198.563 293.832 202.234 294.964 202.277 294.964L202.308 294.006C204.106 293.71 203.958 293.91 205.052 294.655C205.605 295.034 206.785 295.06 207.66 294.986C207.403 294.089 207.094 293.192 206.75 292.321L205.578 292.307C204.925 291.24 204.882 291.815 204.694 290.034C203.083 290.674 204.093 291.249 203.283 292.12C200.814 289.973 203.58 290.831 200.871 288.558C200.27 288.053 200.187 288.227 199.177 288.227C199.538 289.651 199.708 289.568 201.415 290.413C201.145 291.223 201.193 290.831 201.158 291.802C200.126 292.229 199.756 292.329 199.29 291.436C200.043 291.362 200.065 291.571 200.562 291.188C200.461 290.831 200.274 290.788 199.943 290.548C197.931 289.211 198.815 289.921 197.905 288.719C197.687 288.906 197.278 289.394 197.069 289.472C196.603 289.629 196.507 289.298 195.845 289.494C195.723 289.568 194.434 291.18 194.12 292.146C193.458 292.172 192.857 292.268 192.156 292.242C189.613 292.159 190.732 289.368 190.828 289.272C191.926 288.745 192.805 289.002 193.907 289.211L194.107 288.523L193.458 288.066L193.702 286.75C195.61 286.541 195.261 286.655 196.111 285.374C196.821 284.316 197.84 284.834 199.12 284.86L198.959 283.375L197.591 283.841C197.064 282.321 197.304 283.166 196.394 282.478C196.259 281.729 196.564 281.359 197.199 281.041C197.94 280.675 198.253 280.819 198.48 280.401C192.949 275.441 185.641 272.431 177.637 272.431C171.078 272.431 164.977 274.456 159.96 277.91C160.474 277.945 160.766 278.006 161.471 278.276C161.767 278.398 162.207 278.437 162.429 278.52C163.239 278.816 162.464 278.358 163.004 279.134L164.955 279.173C164.681 278.328 164.302 278.398 162.83 278.559C163.122 278.101 163.296 278.167 163.1 277.548H161.545L162.237 276.886C163.296 276.124 163.662 276.133 165.112 276.159C165.369 276.564 165.639 276.886 165.883 277.326C168.713 277.487 167.311 276.111 168.735 276.86C168.034 278.027 167.503 278.04 166.148 278.067L166.227 279.121C167.882 279.269 168.069 279.295 168.4 278.572L169.715 278.472C169.972 277.479 169.175 277.749 169.201 277.344C169.253 276.351 171.326 276.717 171.953 276.83C171.736 277.235 171.353 277.531 170.961 277.753L171.096 278.563C171.509 278.785 171.792 278.833 172.332 278.868L172.258 277.409C175.551 275.715 175.673 277.004 178.425 277.836L178.456 278.968L179.357 279.338L178.943 280.183C177.885 280.196 177.537 280.039 177.236 281.193C176.278 281.045 174.863 280.858 174.175 280.405L176.4 279.164C175.564 278.254 175.625 278.341 174.031 278.589C172.62 278.798 173.613 279.534 171.723 279.556C171.875 280.44 171.627 279.395 171.797 279.839L172.145 280.405C170.46 280.575 172.01 281.032 170.486 280.98L170.251 280.122C168.339 280.662 167.781 281.315 166.174 282.051C166.24 282.888 166.322 283.319 166.971 283.65C168.665 284.56 168.774 282.988 168.774 285.788C169.933 285.736 169.602 285.248 170.055 284.56C170.36 284.094 171.222 284.02 171.875 283.772L171.906 281.559C173.582 280.81 171.701 280.797 175.089 281.45L174.954 282.914C175.951 282.901 176.335 282.409 177.214 282.13C177.254 282.801 177.079 283.737 177.619 284.168L178.464 284.76C178.543 286.69 177.606 285.47 177.815 286.541C177.985 287.465 178.978 286.446 178.665 288.018C178.151 288.018 176.879 287.696 176.513 287.33C176.426 286.08 176.997 287.417 176.892 285.98C175.925 285.954 176.831 285.897 176.343 286.167C175.899 286.411 176.182 286.485 174.924 286.546C174.353 285.858 174.214 285.623 173.256 286.08V286.572C173.552 286.816 173.944 286.855 174.275 287.038L173.852 287.604C172.973 286.999 172.615 287.43 171.975 288.17C171.949 288.192 171.927 288.231 171.914 288.257L171.544 288.784C170.991 289.337 169.824 289.629 168.94 290.565C166.802 292.8 168.317 292.286 167.111 293.109C165.917 293.919 165.613 294.167 164.689 295.038L164.79 296.919L163.461 296.366L163.435 295.173C160.378 295.134 158.044 294.768 156.876 297.825C156.485 298.857 156.702 299.345 157.173 300.085C159.738 300.464 159.002 299.602 161.027 298.757C161.51 299.689 160.957 299.924 160.591 300.882L162.394 301.213L162.582 304.049L164.972 304.48C165.417 304.17 166.292 303.13 166.545 302.664C168.021 302.773 168.465 302.812 169.336 303.966L171.104 303.94L171.422 303.378C172.11 303.844 172.11 303.548 172.602 304.297C172.925 304.776 173.169 305.198 173.378 305.647L175.381 305.699C176.23 306.609 176.213 307.197 176.317 308.6C177.014 308.809 177.702 309.187 178.39 309.375C179.165 309.592 180.25 309.471 181.116 309.471C181.757 309.793 181.622 310.233 182.079 310.686C182.497 311.104 182.898 310.929 183.355 311.334C183.015 312.719 182.95 312.549 182.201 313.468C181.034 314.932 182.201 317.244 180.751 318.372C179.753 319.147 179.671 318.777 178.286 318.777C176.648 321.665 179.753 319.944 176.552 323.838C175.877 324.661 175.912 325.327 174.884 325.789C172.524 326.882 172.633 326.207 172.363 326.895C172.568 327.265 172.855 327.152 173.151 327.496C172.955 328.371 172.72 328.049 172.363 328.702C172.794 329.451 172.62 329.242 173.765 329.308L173.343 331.272C173.8 331.86 174.78 332.082 174.536 332.988C172.054 333.728 170.569 331.158 169.571 329.39C168.796 328.04 170.029 326.895 169.11 325.78C168.186 324.661 168.365 324.156 168.822 322.501C168.335 321.961 168.404 322.522 168.173 321.908L168.199 316.774C167.385 316.012 166.658 315.424 165.286 315.093C164.955 312.698 162.564 311.949 162.843 310.45C163 309.653 163.008 309.074 163.034 308.19C163.492 307.881 164.175 307.354 164.702 307.123L164.485 305.033C163.979 305.02 162.56 304.994 162.15 304.811C161.07 304.305 160.866 302.847 159.35 302.472C158.775 302.324 158.209 302.337 158 301.832L157.874 301.34C156.376 301.131 157.473 301.379 156.685 301.61C155.897 301.314 154.507 301.287 154.015 300.686C152.665 299.04 153.327 299.31 153.406 298.474C153.427 298.095 152.36 296.702 152.064 296.288C151.324 295.251 152.125 293.975 150.923 293.962C150.614 294.568 151.032 295.831 151.389 296.358C151.929 297.159 152.212 297.255 152.125 298.374C150.671 298.3 150.836 297.882 150.196 296.802C148.785 294.433 151.276 294.049 148.463 292.969C148.463 292.795 148.463 292.612 148.489 292.429V292.434H148.497ZM177.65 270.236C196.111 270.236 211.07 285.2 211.07 303.661C211.07 322.122 196.111 337.086 177.65 337.086C159.193 337.086 144.238 322.122 144.238 303.661C144.238 285.2 159.193 270.236 177.65 270.236ZM310.186 277.596C304.881 277.596 300.557 281.921 300.557 287.23C300.557 292.547 304.881 296.871 310.186 296.871C315.503 296.871 319.819 292.547 319.819 287.23C319.819 281.916 315.503 277.596 310.186 277.596ZM310.186 300.038C303.122 300.038 297.373 294.289 297.373 287.225C297.373 280.161 303.122 274.413 310.186 274.413C317.249 274.413 322.994 280.166 322.994 287.225C322.994 294.289 317.249 300.038 310.186 300.038Z" fill="#FFE7B5"/>
<path fill-rule="evenodd" clip-rule="evenodd" d="M307.791 289.843C307.939 290.222 308.152 290.518 308.409 290.74C308.823 291.106 309.402 291.28 310.117 291.28C310.861 291.28 311.432 291.119 311.811 290.796C312.203 290.479 312.381 290.113 312.381 289.682C312.381 289.398 312.311 289.168 312.15 288.967C311.989 288.784 311.706 288.61 311.305 288.475C311.035 288.379 310.408 288.205 309.424 287.961C308.17 287.639 307.286 287.26 306.785 286.807C306.071 286.158 305.718 285.383 305.718 284.447C305.718 283.855 305.888 283.293 306.219 282.779C306.554 282.261 307.042 281.869 307.665 281.599C308.122 281.403 308.653 281.276 309.237 281.228V279.913H311.227V281.289C312.076 281.424 312.738 281.721 313.243 282.16C313.661 282.531 313.966 282.957 314.154 283.463L311.928 284.373C311.819 284.007 311.632 283.733 311.401 283.541C311.066 283.284 310.574 283.149 309.925 283.149C309.25 283.149 308.71 283.284 308.327 283.567C308.083 283.75 307.956 283.994 307.956 284.303C307.956 284.573 308.065 284.804 308.3 285.004C308.61 285.261 309.324 285.518 310.461 285.793C311.602 286.063 312.455 286.341 312.991 286.624C313.531 286.92 313.958 287.312 314.28 287.818C314.58 288.31 314.728 288.937 314.728 289.673C314.728 290.335 314.55 290.962 314.175 291.541C313.805 292.129 313.278 292.56 312.608 292.843C312.207 293.013 311.75 293.139 311.218 293.2V294.542H309.228V293.24C308.161 293.131 307.312 292.795 306.676 292.255C306.219 291.85 305.862 291.345 305.618 290.735L307.791 289.843ZM344.469 285.945C335.232 304.593 314.158 315.968 290.732 317.71C318.674 308.669 327.776 295.561 334.322 282.914L330.315 281.586L345.854 264.767L348.406 287.121L344.469 285.945Z" fill="#FFE7B5"/>
<path fill-rule="evenodd" clip-rule="evenodd" d="M312.398 337.538H324.3V310.011C320.529 312.197 316.54 314.013 312.398 315.489V337.538ZM327.71 337.538H339.613V297.407C336.168 301.449 332.131 304.937 327.71 307.885V337.538ZM343.031 337.538H354.933V278.162H349.694L351.079 290.308L345.627 288.675C344.83 290.147 343.95 291.563 343.031 292.921V337.538ZM297.077 337.538H308.979V316.617C305.073 317.81 301.084 318.703 297.077 319.308V337.538ZM289.622 345.769H362.394C362.807 345.769 363.151 346.113 363.151 346.532V351.679C363.151 352.097 362.807 352.441 362.394 352.441H289.622C289.203 352.441 288.859 352.097 288.859 351.679V346.532C288.859 346.113 289.203 345.769 289.622 345.769ZM294.351 340.796H357.647C357.843 340.796 357.991 340.944 357.991 341.14V343.439C357.991 343.635 357.843 343.784 357.647 343.784H294.351C294.164 343.784 294.016 343.635 294.016 343.439V341.14C294.02 340.944 294.168 340.796 294.351 340.796ZM446.532 266.147C444.198 266.147 442.308 268.054 442.308 270.384V334.233C443.597 332.944 445.391 332.134 447.368 332.134H500.974V270.384C500.974 268.05 499.066 266.147 496.737 266.147H446.532ZM441.254 340.365C440.675 340.365 440.196 339.886 440.196 339.307V270.384C440.196 266.883 443.044 264.048 446.532 264.048H496.732C500.225 264.048 503.073 266.883 503.073 270.384V333.192C503.073 333.767 502.594 334.237 502.015 334.237H447.364C444.577 334.237 442.303 336.506 442.303 339.311C442.308 339.886 441.824 340.365 441.254 340.365Z" fill="#FFF7E7"/>
<path fill-rule="evenodd" clip-rule="evenodd" d="M464.457 344.38H499.959C497.795 340.957 497.777 337.503 499.881 334.237H447.372C444.585 334.237 442.312 336.506 442.312 339.311C442.312 342.111 444.581 344.384 447.372 344.384H455.098V341.192C455.098 340.6 455.564 340.134 456.143 340.134H463.407C463.995 340.134 464.461 340.6 464.461 341.192V344.38H464.457ZM502.058 346.479C502.058 346.479 502.032 346.479 502.019 346.479H463.403C462.824 346.479 462.358 346.013 462.358 345.421V342.229H457.197V345.421C457.197 346.013 456.718 346.479 456.139 346.479H447.368C443.414 346.479 440.195 343.261 440.195 339.306C440.195 335.352 443.414 332.134 447.368 332.134H502.019C502.441 332.134 502.807 332.378 502.981 332.761C503.147 333.14 503.077 333.584 502.794 333.889C499.624 337.403 499.584 340.809 502.694 344.602C502.938 344.798 503.103 345.094 503.103 345.425C503.103 346.018 502.633 346.483 502.045 346.483H502.058V346.479Z" fill="#FFE7B5"/>
<path fill-rule="evenodd" clip-rule="evenodd" d="M499.624 342.233H463.404C462.824 342.233 462.358 341.763 462.358 341.188C462.358 340.596 462.824 340.13 463.404 340.13H499.624C500.216 340.13 500.682 340.596 500.682 341.188C500.678 341.763 500.216 342.233 499.624 342.233ZM499.581 338.423H450.805C450.225 338.423 449.764 337.952 449.764 337.365C449.764 336.785 450.225 336.319 450.805 336.319H499.581C500.173 336.319 500.639 336.785 500.639 337.365C500.639 337.957 500.173 338.423 499.581 338.423Z" fill="#FFE7B5"/>
<path fill-rule="evenodd" clip-rule="evenodd" d="M459.716 348.2C459.951 348.2 460.169 348.274 460.365 348.422L462.355 349.968V342.229H457.194V349.916L459.062 348.431C459.245 348.274 459.481 348.2 459.716 348.2ZM456.14 353.16C455.979 353.16 455.831 353.125 455.687 353.051C455.317 352.881 455.095 352.511 455.095 352.106V341.188C455.095 340.596 455.561 340.13 456.14 340.13H463.404C463.992 340.13 464.458 340.596 464.458 341.188V352.106C464.458 352.511 464.223 352.868 463.866 353.051C463.509 353.225 463.078 353.186 462.76 352.942L459.729 350.582L456.789 352.929C456.606 353.077 456.371 353.16 456.14 353.16ZM454.298 286.968H493.789V276.821H454.298V286.968ZM494.848 289.068H453.253C452.678 289.068 452.195 288.584 452.195 288.009V275.759C452.195 275.179 452.678 274.713 453.253 274.713H494.848C495.418 274.713 495.888 275.179 495.888 275.759V288.009C495.888 288.589 495.418 289.068 494.848 289.068ZM446.533 282.191C445.954 282.191 445.475 281.712 445.475 281.133V274.278C445.475 273.703 445.954 273.22 446.533 273.22C447.112 273.22 447.574 273.699 447.574 274.278V281.133C447.578 281.712 447.112 282.191 446.533 282.191ZM446.533 334.233C445.954 334.233 445.475 333.763 445.475 333.188V287.09C445.475 286.511 445.954 286.032 446.533 286.032C447.112 286.032 447.574 286.511 447.574 287.09V333.188C447.578 333.767 447.112 334.233 446.533 334.233ZM484.7 297.839H463.387C462.808 297.839 462.346 297.368 462.346 296.785C462.346 296.205 462.808 295.739 463.387 295.739H484.7C485.293 295.739 485.759 296.205 485.759 296.785C485.754 297.373 485.293 297.839 484.7 297.839ZM492.156 302.041H455.936C455.356 302.041 454.89 301.571 454.89 300.983C454.89 300.404 455.352 299.938 455.936 299.938H492.156C492.748 299.938 493.214 300.404 493.214 300.983C493.21 301.571 492.748 302.041 492.156 302.041ZM174.25 425.745V453.151L156.93 481.637C156.634 482.129 156.825 483.17 156.974 483.675C157.352 485.099 158.215 486.549 159.112 487.708C160.087 488.958 162.5 491.379 164.22 491.379H196.517C198.237 491.379 200.641 488.962 201.617 487.708C202.509 486.549 203.367 485.099 203.764 483.675C203.894 483.17 204.099 482.129 203.799 481.637L186.492 453.151V425.745H174.25ZM191.801 479.525C191.544 479.268 191.182 479.107 190.79 479.107C190.394 479.107 190.041 479.268 189.784 479.525C189.527 479.769 189.379 480.126 189.379 480.518C189.379 480.91 189.527 481.271 189.784 481.528C190.041 481.785 190.398 481.942 190.79 481.942C191.182 481.942 191.539 481.785 191.801 481.528C192.057 481.271 192.214 480.91 192.214 480.518C192.214 480.126 192.057 479.769 191.801 479.525ZM176.837 483.675C176.471 483.296 175.953 483.074 175.373 483.074C174.807 483.074 174.293 483.296 173.923 483.675C173.544 484.041 173.322 484.564 173.322 485.125C173.322 485.691 173.553 486.205 173.923 486.589C174.293 486.954 174.807 487.19 175.373 487.19C175.953 487.19 176.467 486.959 176.837 486.589C177.207 486.21 177.438 485.705 177.438 485.125C177.438 484.564 177.207 484.041 176.837 483.675ZM175.373 481.942C174.502 481.942 173.705 482.299 173.126 482.874C172.547 483.453 172.194 484.25 172.194 485.121C172.194 486.005 172.551 486.802 173.126 487.381V487.368C173.705 487.947 174.507 488.3 175.373 488.3C176.257 488.3 177.054 487.943 177.638 487.377V487.364C178.2 486.785 178.561 486.001 178.561 485.117C178.561 484.246 178.2 483.449 177.625 482.869H177.642C177.059 482.299 176.257 481.942 175.373 481.942ZM184.24 479.364C183.752 478.872 183.086 478.575 182.337 478.575C181.588 478.575 180.917 478.872 180.417 479.364C179.942 479.856 179.633 480.531 179.633 481.28C179.633 482.016 179.942 482.691 180.417 483.183C180.913 483.675 181.588 483.971 182.337 483.971C183.086 483.971 183.761 483.675 184.24 483.183C184.737 482.691 185.024 482.016 185.024 481.28C185.028 480.531 184.737 479.856 184.24 479.364ZM182.341 477.447C181.283 477.447 180.325 477.879 179.637 478.562V478.575C178.94 479.264 178.522 480.222 178.522 481.28C178.522 482.334 178.94 483.279 179.637 483.98C180.325 484.668 181.283 485.095 182.341 485.095C183.4 485.095 184.353 484.668 185.046 483.98C185.747 483.279 186.165 482.321 186.165 481.28C186.165 480.222 185.747 479.264 185.046 478.562C184.353 477.879 183.4 477.447 182.341 477.447ZM176.014 473.027C175.413 472.422 174.576 472.043 173.653 472.043C172.73 472.043 171.894 472.422 171.293 473.027C170.692 473.628 170.313 474.464 170.313 475.388C170.313 476.311 170.696 477.143 171.293 477.748C171.894 478.349 172.73 478.728 173.653 478.728C174.576 478.728 175.413 478.349 176.014 477.748C176.615 477.143 176.998 476.311 176.998 475.388C176.998 474.464 176.615 473.628 176.014 473.027ZM173.658 470.928C172.425 470.928 171.31 471.42 170.5 472.23C169.686 473.036 169.185 474.159 169.185 475.388C169.185 476.616 169.686 477.735 170.5 478.541C171.31 479.351 172.425 479.847 173.658 479.847C174.886 479.847 176.005 479.355 176.815 478.541C177.625 477.731 178.117 476.611 178.117 475.388C178.117 474.159 177.625 473.04 176.815 472.23C176.001 471.416 174.886 470.928 173.658 470.928ZM190.79 477.979C190.093 477.979 189.453 478.262 188.996 478.728C188.534 479.185 188.251 479.821 188.251 480.522C188.251 481.223 188.534 481.863 188.996 482.329C189.453 482.782 190.093 483.065 190.79 483.065C191.504 483.065 192.127 482.782 192.597 482.329C193.05 481.859 193.342 481.223 193.342 480.522C193.342 479.825 193.046 479.185 192.597 478.728C192.131 478.262 191.491 477.979 190.79 477.979ZM165.967 469.034L157.966 482.203C157.901 482.469 158.041 483.122 158.115 483.37C158.459 484.646 159.229 485.948 160.039 486.981C160.754 487.891 162.983 490.199 164.216 490.199H196.513C197.728 490.199 199.962 487.891 200.676 486.981C201.49 485.948 202.261 484.646 202.618 483.37C202.684 483.122 202.814 482.469 202.766 482.212L194.758 469.034H165.967ZM170.805 422.309H190.729C191.857 422.309 192.767 423.232 192.767 424.347C192.767 425.475 191.857 426.389 190.729 426.389H189.915V452.197L206.734 479.856C209.656 484.659 202.126 494.82 196.513 494.82H164.216C158.589 494.82 151.059 484.664 153.982 479.856L170.796 452.197V426.389H169.986C168.871 426.389 167.948 425.479 167.948 424.347C167.948 423.232 168.871 422.309 169.986 422.309H170.805ZM397.095 624.189C590.044 624.189 746.462 631.031 746.462 639.458C746.462 647.885 590.044 654.718 397.095 654.718C204.143 654.718 47.7109 647.889 47.7109 639.458C47.7109 631.031 204.143 624.189 397.095 624.189Z" fill="#FFE7B5"/>
<path fill-rule="evenodd" clip-rule="evenodd" d="M612.47 424.443C605.872 429.037 600.346 463.22 599.806 526.977C599.105 550.903 603.255 582.594 608.62 624.25C613.01 626.118 619.434 626.388 624.32 626.118C631.136 574.429 632.246 541.427 627.177 527.874C633.753 511.255 639.284 493.948 643.513 476.298C646.439 500.79 649.888 520.235 653.882 534.615C662.714 557.636 675.809 587.794 693.151 625.086C697.171 625.626 704.291 624.424 708.441 621.711C702.375 576.101 690.791 541.819 679.873 530.469C690.246 472.16 681.615 441.806 668.733 423.985C645.734 427.404 625.775 427.173 612.47 424.443Z" fill="#FFB30F"/>
<path fill-rule="evenodd" clip-rule="evenodd" d="M684.517 406.6C701.714 339.921 682.979 315.655 646.153 315.358C643.723 321.834 639.377 328.441 633.11 335.208C630.532 330.27 627.719 326.512 624.683 323.933C621.447 326.046 618.207 329.377 614.967 333.906C614.401 327.004 615.054 321.046 616.909 316.025C603.653 316.948 583.006 323.507 554.938 335.714C539.508 330.627 520.163 324.926 498.423 320.31L498.349 320.375L498.51 320.767C496.79 322.496 494.76 326.908 494.146 330.396C493.807 330.313 493.58 330.248 493.319 330.187L492.953 331.232C511.1 342.677 528.76 349.397 553.906 356.265C569.875 356.13 586.002 356.757 602.268 351.056C602.49 399.001 605.865 418.933 612.476 424.451C618.817 425.74 626.678 426.481 635.645 426.515C636.237 427.609 636.664 429.39 637.095 431.097C641.319 429.782 645.962 427.63 651.07 425.962L652.485 425.396C666.583 419.678 676.325 413.842 684.517 406.6Z" fill="#1B1E21"/>
<path fill-rule="evenodd" clip-rule="evenodd" d="M593.91 640.586C607.036 641.2 616.865 641.666 621.486 640.512C626.472 639.284 625.645 636.239 623.14 631.288C618.228 632.895 613.285 632.481 608.307 630.06C604.031 633.069 597.86 634.885 589.833 635.503C586.297 637.772 587.534 640.085 593.91 640.586ZM696.183 642.541C703.477 640.486 709.757 639.061 712.361 637.219C715.858 634.763 713.964 631.815 710.402 628.096C706.169 631.053 701.317 632.098 695.839 631.214C691.98 636.705 679.416 634.397 678.183 638.156C676.65 645.154 692.847 643.486 696.183 642.541ZM630.749 401.683C629.521 382.913 628.044 360.067 626.559 331.716C628.131 330.919 629.251 329.652 629.621 329.334C628.11 327.248 626.529 325.493 624.878 324.104C623.023 325.319 621.163 326.943 619.291 328.955C619.866 329.765 620.863 330.688 622.3 331.733C620.924 349.175 619.495 372.958 618.036 403.051C618.833 405.838 621.242 408.691 624.364 410.851C626.389 409.213 629.777 406.191 630.749 401.683Z" fill="#1B1E21"/>
<path fill-rule="evenodd" clip-rule="evenodd" d="M633.108 335.204C639.375 328.437 643.722 321.83 646.152 315.354C644.789 312.763 642.629 310.167 641.113 309.444C633.831 317.048 629.198 321.299 624.764 323.877C624.725 323.89 624.708 323.903 624.682 323.925C624.629 323.716 624.573 323.524 624.507 323.311C623.327 319.295 621.633 314.64 620.897 310.01C618.811 311.496 618.045 313.756 616.904 316.016C615.048 321.042 614.399 326.995 614.961 333.898C616.337 331.981 617.714 330.274 619.085 328.776C620.954 326.764 622.822 325.14 624.677 323.925C626.323 325.327 627.904 327.069 629.42 329.159C630.7 330.932 631.928 332.944 633.108 335.204Z" fill="#DACFEB"/>
<path fill-rule="evenodd" clip-rule="evenodd" d="M656.989 356.073C657.232 355.028 657.298 353.826 657.202 352.476C651.022 353.012 645.478 352.611 640.601 351.183C640.087 352.167 639.852 353.225 639.917 354.366C643.671 355.764 649.359 356.33 656.989 356.073Z" fill="#FFC23F"/>
<path fill-rule="evenodd" clip-rule="evenodd" d="M641.045 309.483C639.917 308.081 638.972 306.217 638.197 303.87C638.602 302.629 639.015 301.043 639.46 299.14C647.434 293.466 648.448 289.385 642.508 286.868C641.341 287.556 639.917 289.646 638.231 293.109C636.829 293.082 635.749 292.381 635 291.023C636.537 285.2 637.535 280.483 637.957 276.86C633.846 271.024 624.496 270.371 612.189 272.239C611.683 275.532 611.291 279.02 610.995 282.705C608.857 284.769 609.301 292.216 611.496 300.76C610.603 305.664 613.678 308.268 620.724 308.56L620.825 310.058C621.565 314.692 623.259 319.343 624.439 323.363L624.683 323.925C629.13 321.338 633.755 317.087 641.045 309.483Z" fill="#FFB27D"/>
<path fill-rule="evenodd" clip-rule="evenodd" d="M612.188 272.24C624.496 270.372 633.846 271.025 637.957 276.861C637.534 280.484 636.537 285.201 635 291.023C635.745 292.386 636.829 293.087 638.231 293.109C639.917 289.643 641.341 287.557 642.508 286.869C648.448 289.386 647.429 293.466 639.459 299.141C639.015 301.044 638.601 302.629 638.196 303.87C645.426 302.076 651.388 295.444 652.172 292.608C660.302 275.694 650.687 268.826 645.565 266.356C642.974 249.834 619.226 265.002 606.997 257.268C602.35 263.996 608.456 272.166 612.188 272.24Z" fill="#B5453C"/>
<path fill-rule="evenodd" clip-rule="evenodd" d="M630.036 307.406C627.775 308.033 623.329 308.643 620.725 308.56L620.825 310.058C620.96 310.956 621.147 311.853 621.352 312.75C621.378 312.737 621.4 312.737 621.43 312.724C625.454 311.313 628.328 309.545 630.036 307.406Z" fill="#F08261"/>
<path fill-rule="evenodd" clip-rule="evenodd" d="M619.913 329.739C619.617 329.443 619.339 329.125 619.086 328.781C621.803 325.906 623.733 324.347 624.869 324.104C625.697 325.58 626.729 327.84 627.853 330.579C628.632 329.961 629.168 329.373 629.42 329.168C627.97 327.165 626.441 325.471 624.869 324.104C623.393 325.305 621.729 327.196 619.913 329.739Z" fill="#2F365C"/>
<path fill-rule="evenodd" clip-rule="evenodd" d="M696.183 625.182C696.762 627.172 696.98 629.223 696.858 631.362C701.344 631.889 705.411 631.092 709.043 628.967C708.015 627.024 707.227 624.925 706.709 622.678C703.578 624.189 699.501 625.047 696.183 625.182ZM622.065 631.606C621.843 629.75 621.756 627.947 621.795 626.201C618.342 626.24 614.501 625.979 611.239 625.121C610.86 627.355 610.211 629.149 609.266 630.504C613.556 632.368 617.828 632.738 622.065 631.606ZM498.492 320.759C496.885 316.434 494.904 313.93 492.569 313.251C487.326 310.916 482.67 308.29 478.62 305.377C476.996 307.367 478.285 309.445 482.509 311.596C484.277 312.563 485.558 313.534 486.342 314.483C481.943 316.561 479.818 319.174 479.935 322.331C480.567 324.761 481.355 326.159 482.296 326.534C482.753 326.703 483.75 327.047 484.717 325.98C487.104 330.736 490.196 330.932 492.63 330.022C493.314 330.183 493.54 330.244 494.137 330.388C494.755 326.904 496.785 322.488 498.492 320.759Z" fill="#FFB27D"/>
<path fill-rule="evenodd" clip-rule="evenodd" d="M633.389 376.598L660.821 400.429C653.574 405.241 644.289 411.643 631.094 420.806C631.607 421.237 632.1 421.716 632.579 422.217C632.927 422.069 633.28 421.925 633.628 421.79C634.203 422.43 634.795 423.04 635.331 423.706C635.936 424.516 636.45 425.414 636.72 426.52C636.977 427.504 637.038 428.645 636.829 430.047C636.912 430.391 637.003 430.744 637.086 431.092C640.487 430.039 644.163 428.427 648.143 426.977C657.319 423.624 667.118 419.042 675.68 413.341L682.439 419.212C683.715 420.331 683.85 422.274 682.748 423.55L654.197 456.408C653.091 457.675 651.14 457.81 649.877 456.704L600.818 414.091C599.555 412.989 599.42 411.033 600.521 409.753L629.068 376.908C630.17 375.632 632.113 375.497 633.389 376.598Z" fill="#DE7B2A"/>
<path fill-rule="evenodd" clip-rule="evenodd" d="M634.669 374.857L665.058 397.655C657.228 402.729 646.998 409.753 631.089 420.806C631.603 421.237 632.095 421.716 632.574 422.217C632.923 422.069 633.276 421.925 633.624 421.79C634.199 422.431 634.791 423.04 635.327 423.707C635.932 424.517 636.446 425.414 636.716 426.52C636.973 427.504 637.034 428.645 636.825 430.047C636.908 430.391 636.999 430.744 637.082 431.093C640.483 430.039 644.159 428.427 648.139 426.977C659.266 422.91 671.303 417.052 680.919 409.57L686.646 413.856C687.987 414.875 688.266 416.804 687.247 418.154L661.134 452.968C660.111 454.318 658.182 454.588 656.832 453.582L604.859 414.57C603.509 413.559 603.235 411.634 604.249 410.28L630.375 375.471C631.39 374.116 633.315 373.837 634.669 374.857Z" fill="#F99746"/>
<path fill-rule="evenodd" clip-rule="evenodd" d="M615.163 336.812C616.609 334.381 618.246 331.973 619.919 329.735C619.592 329.404 619.305 329.086 619.091 328.777C617.719 330.266 616.352 331.973 614.98 333.885C615.019 334.887 615.076 335.867 615.163 336.812ZM602.264 351.048C602.189 348.274 602.416 344.368 602.904 339.32C601.763 344.799 599.437 349.345 595.953 352.956C598.052 352.416 600.151 351.788 602.264 351.048ZM633.11 335.205C631.93 332.949 630.702 330.932 629.43 329.164C629.182 329.373 628.642 329.961 627.862 330.575C629.055 333.497 630.358 336.964 631.612 340.622C637.84 332.801 643.736 322.836 646.158 315.354C643.719 321.83 639.377 328.437 633.11 335.205ZM665.058 397.655C666.347 396.819 667.571 396.031 668.751 395.295C666.16 384.473 664.126 369.352 664.845 356.331C662.119 371.146 661.788 383.737 663.865 394.093L662.023 395.382L665.058 397.655Z" fill="#FFC23F"/>
<path fill-rule="evenodd" clip-rule="evenodd" d="M633.628 421.79C629.656 423.41 626.024 425.252 622.706 427.33C619.744 432.316 619.035 434.663 620.419 437.424C623.52 441.344 628.467 441.331 628.92 438.518C627.575 437.08 627.967 435.129 629.487 433.479C631.821 434.032 633.345 433.457 634.055 431.724C635.013 431.441 635.871 431.21 636.646 430.996C637.43 427.434 636.598 425.383 635.331 423.702C634.795 423.044 634.203 422.43 633.628 421.79Z" fill="#FFB27D"/>
<path fill-rule="evenodd" clip-rule="evenodd" d="M58.0801 578.701H593.919V597.632C593.919 608.045 585.405 616.559 574.992 616.559H77.0243C66.6028 616.559 58.0801 608.045 58.0801 597.632V578.701Z" fill="#FFCC5E"/>
<path fill-rule="evenodd" clip-rule="evenodd" d="M493.088 475.579C496.367 474.168 500.173 475.675 501.602 478.955C503.013 482.234 501.502 486.053 498.222 487.469C494.93 488.884 491.124 487.373 489.708 484.089C488.289 480.814 489.808 476.995 493.088 475.579ZM463.374 475.579C460.094 474.168 456.275 475.675 454.86 478.955C453.449 482.234 454.96 486.053 458.239 487.469C461.518 488.884 465.338 487.373 466.753 484.089C468.164 480.814 466.653 476.995 463.374 475.579ZM471.687 467.636H471.713L485.889 436.45L493.702 419.304C495.988 421.303 496.354 423.873 495.104 426.882L482.218 458.194L477.554 469.543C473.255 472.135 471.387 476.681 471.927 483.218C471.139 485.121 470.673 486.728 469.327 488.387C466.331 492.137 461.087 493.587 456.471 491.584C450.914 489.189 448.358 482.752 450.757 477.2C453.152 471.647 459.589 469.095 465.142 471.486C466.562 472.104 467.781 472.975 468.783 474.029L471.687 467.636ZM478.229 459.414C477.719 459.414 477.305 459.832 477.305 460.337C477.305 460.851 477.719 461.269 478.229 461.269C478.742 461.269 479.156 460.851 479.156 460.337C479.156 459.832 478.742 459.414 478.229 459.414ZM503.283 489.376C504.868 490.099 505.935 490.922 506.519 491.845C507.202 492.96 507.128 494.35 506.275 495.996C505.966 496.614 506.196 497.372 506.81 497.69C507.429 497.999 508.191 497.764 508.505 497.15C509.802 494.654 509.846 492.446 508.64 490.517C507.89 489.298 506.654 488.257 504.907 487.373C506.776 484.424 507.194 480.631 505.704 477.191C503.309 471.638 496.855 469.086 491.32 471.477C489.891 472.095 488.681 472.966 487.679 474.02L482.057 461.687L478.864 469.439C483.15 472.017 485.031 476.572 484.478 483.087L484.526 483.209C485.323 485.113 485.78 486.72 487.117 488.392C490.126 492.128 495.37 493.566 499.986 491.575C501.258 491.035 502.364 490.273 503.283 489.376ZM461.349 426.878L474.453 458.717L477.575 451.836L462.764 419.3C460.464 421.299 460.107 423.868 461.349 426.878ZM436.216 421.09C435.75 421.09 435.371 421.469 435.371 421.935V461.378C435.371 461.848 435.75 462.227 436.216 462.227C436.686 462.227 437.065 461.848 437.065 461.378V421.935C437.065 421.473 436.686 421.09 436.216 421.09ZM435.968 419.3H443.855C444.225 419.3 444.516 419.605 444.516 419.975V422.557H439.909V424.069H444.516V425.75H439.909V427.248H444.516V428.929H439.909V430.44H444.516V432.108H439.909V433.619H444.516V435.291H439.909V436.803H444.516V438.484H439.909V439.982H444.516V441.663H439.909V443.174H444.516V444.846H439.909V446.353H444.516V448.021H439.909V449.532H444.516V451.213H439.909V452.711H444.516V454.392H439.909V455.904H444.516V457.572H439.909V459.083H444.516V460.751H439.909V462.262H444.516V464.853C444.516 465.219 444.22 465.515 443.855 465.515H438.154L437.091 494.467C437.052 495.673 437.174 496.653 435.972 496.653C434.779 496.653 434.905 495.673 434.866 494.467L433.799 465.271V421.473C433.799 420.293 434.753 419.322 435.946 419.3H435.981H435.968Z" fill="#FFE7B5"/>
</g>
</svg>
