<svg width="40" height="40" viewBox="0 0 40 40" fill="none" xmlns="http://www.w3.org/2000/svg">
<rect width="40" height="40" rx="20" fill="#FBF7EE"/>
<g opacity="0.4">
<path d="M17.5 21.75C17.5 22.72 18.25 23.5 19.17 23.5H21.05C21.85 23.5 22.5 22.82 22.5 21.97C22.5 21.06 22.1 20.73 21.51 20.52L18.5 19.47C17.91 19.26 17.51 18.94 17.51 18.02C17.51 17.18 18.16 16.49 18.96 16.49H20.84C21.76 16.49 22.51 17.27 22.51 18.24" stroke="url(#paint0_linear_3521_54052)" stroke-width="1.5" stroke-linecap="round" stroke-linejoin="round"/>
<path d="M20 15.5V24.5" stroke="url(#paint1_linear_3521_54052)" stroke-width="1.5" stroke-linecap="round" stroke-linejoin="round"/>
</g>
<path d="M30 20C30 25.52 25.52 30 20 30C14.48 30 10 25.52 10 20C10 14.48 14.48 10 20 10" stroke="url(#paint2_linear_3521_54052)" stroke-width="1.5" stroke-linecap="round" stroke-linejoin="round"/>
<path d="M30 14V10H26" stroke="url(#paint3_linear_3521_54052)" stroke-width="1.5" stroke-linecap="round" stroke-linejoin="round"/>
<path d="M25 15L30 10" stroke="url(#paint4_linear_3521_54052)" stroke-width="1.5" stroke-linecap="round" stroke-linejoin="round"/>
<defs>
<linearGradient id="paint0_linear_3521_54052" x1="17.5" y1="22.8259" x2="23.4028" y2="21.8438" gradientUnits="userSpaceOnUse">
<stop offset="0.102194" stop-color="#FFB30F"/>
<stop offset="1" stop-color="#EDCB00"/>
</linearGradient>
<linearGradient id="paint1_linear_3521_54052" x1="20" y1="23.6346" x2="21.21" y2="23.6033" gradientUnits="userSpaceOnUse">
<stop offset="0.102194" stop-color="#FFB30F"/>
<stop offset="1" stop-color="#EDCB00"/>
</linearGradient>
<linearGradient id="paint2_linear_3521_54052" x1="10" y1="28.0769" x2="32.9715" y2="22.7291" gradientUnits="userSpaceOnUse">
<stop offset="0.102194" stop-color="#FFB30F"/>
<stop offset="1" stop-color="#EDCB00"/>
</linearGradient>
<linearGradient id="paint3_linear_3521_54052" x1="26" y1="13.6154" x2="30.5943" y2="12.5458" gradientUnits="userSpaceOnUse">
<stop offset="0.102194" stop-color="#FFB30F"/>
<stop offset="1" stop-color="#EDCB00"/>
</linearGradient>
<linearGradient id="paint4_linear_3521_54052" x1="25" y1="14.5192" x2="30.7429" y2="13.1823" gradientUnits="userSpaceOnUse">
<stop offset="0.102194" stop-color="#FFB30F"/>
<stop offset="1" stop-color="#EDCB00"/>
</linearGradient>
</defs>
</svg>
