<svg width="32" height="32" viewBox="0 0 32 32" fill="none" xmlns="http://www.w3.org/2000/svg">
<rect width="32" height="32" rx="16" fill="#F0F0F1"/>
<path d="M20.166 23.0834H11.8327C9.33268 23.0834 7.66602 21.8334 7.66602 18.9167V13.0834C7.66602 10.1667 9.33268 8.91669 11.8327 8.91669H20.166C22.666 8.91669 24.3327 10.1667 24.3327 13.0834V18.9167C24.3327 21.8334 22.666 23.0834 20.166 23.0834Z" stroke="#FFB30F" stroke-width="1.5" stroke-miterlimit="10" stroke-linecap="round" stroke-linejoin="round"/>
<path d="M16 18.5C17.3807 18.5 18.5 17.3807 18.5 16C18.5 14.6193 17.3807 13.5 16 13.5C14.6193 13.5 13.5 14.6193 13.5 16C13.5 17.3807 14.6193 18.5 16 18.5Z" fill="url(#paint0_linear_1725_28067)" stroke="url(#paint1_linear_1725_28067)" stroke-width="1.5" stroke-miterlimit="10" stroke-linecap="round" stroke-linejoin="round"/>
<path d="M10.584 13.9167V18.0834" stroke="#FFB30F" stroke-width="1.5" stroke-miterlimit="10" stroke-linecap="round" stroke-linejoin="round"/>
<path d="M21.416 13.9167V18.0834" stroke="#FFB30F" stroke-width="1.5" stroke-miterlimit="10" stroke-linecap="round" stroke-linejoin="round"/>
<defs>
<linearGradient id="paint0_linear_1725_28067" x1="13.5" y1="18.0192" x2="19.2429" y2="16.6823" gradientUnits="userSpaceOnUse">
<stop offset="0.102194" stop-color="#FFB30F"/>
<stop offset="1" stop-color="#EDCB00"/>
</linearGradient>
<linearGradient id="paint1_linear_1725_28067" x1="13.5" y1="18.0192" x2="19.2429" y2="16.6823" gradientUnits="userSpaceOnUse">
<stop offset="0.102194" stop-color="#FFB30F"/>
<stop offset="1" stop-color="#EDCB00"/>
</linearGradient>
</defs>
</svg>
