<svg width="40" height="40" viewBox="0 0 40 40" fill="none" xmlns="http://www.w3.org/2000/svg">
<rect width="40" height="40" rx="20" fill="#FBF7EE"/>
<path d="M17 25V19L15 21" stroke="url(#paint0_linear_3470_32942)" stroke-width="1.5" stroke-linecap="round" stroke-linejoin="round"/>
<path d="M17 19L19 21" stroke="url(#paint1_linear_3470_32942)" stroke-width="1.5" stroke-linecap="round" stroke-linejoin="round"/>
<path d="M30 18V23C30 28 28 30 23 30H17C12 30 10 28 10 23V17C10 12 12 10 17 10H22" stroke="url(#paint2_linear_3470_32942)" stroke-width="1.5" stroke-linecap="round" stroke-linejoin="round"/>
<path d="M30 18H26C23 18 22 17 22 14V10L30 18Z" stroke="url(#paint3_linear_3470_32942)" stroke-width="1.5" stroke-linecap="round" stroke-linejoin="round"/>
<defs>
<linearGradient id="paint0_linear_3470_32942" x1="15" y1="24.4231" x2="17.4072" y2="24.2363" gradientUnits="userSpaceOnUse">
<stop offset="0.102194" stop-color="#FFB30F"/>
<stop offset="1" stop-color="#EDCB00"/>
</linearGradient>
<linearGradient id="paint1_linear_3470_32942" x1="17" y1="20.8077" x2="19.2972" y2="20.2729" gradientUnits="userSpaceOnUse">
<stop offset="0.102194" stop-color="#FFB30F"/>
<stop offset="1" stop-color="#EDCB00"/>
</linearGradient>
<linearGradient id="paint2_linear_3470_32942" x1="10" y1="28.0769" x2="32.9715" y2="22.7291" gradientUnits="userSpaceOnUse">
<stop offset="0.102194" stop-color="#FFB30F"/>
<stop offset="1" stop-color="#EDCB00"/>
</linearGradient>
<linearGradient id="paint3_linear_3470_32942" x1="22" y1="17.2308" x2="31.1886" y2="15.0916" gradientUnits="userSpaceOnUse">
<stop offset="0.102194" stop-color="#FFB30F"/>
<stop offset="1" stop-color="#EDCB00"/>
</linearGradient>
</defs>
</svg>
