<svg width="56" height="56" viewBox="0 0 56 56" fill="none" xmlns="http://www.w3.org/2000/svg">
<rect width="56" height="56" rx="28" fill="white"/>
<path d="M23.1733 28L26.3867 31.2266L32.8267 24.7733" stroke="url(#paint0_linear_57_1488)" stroke-width="1.5" stroke-linecap="round" stroke-linejoin="round"/>
<path d="M26.3333 15.2666C27.2533 14.48 28.76 14.48 29.6933 15.2666L31.8 17.08C32.2 17.4266 32.9467 17.7066 33.48 17.7066H35.7467C37.16 17.7066 38.32 18.8666 38.32 20.28V22.5466C38.32 23.0666 38.6 23.8266 38.9467 24.2266L40.76 26.3333C41.5467 27.2533 41.5467 28.76 40.76 29.6933L38.9467 31.8C38.6 32.2 38.32 32.9466 38.32 33.48V35.7466C38.32 37.16 37.16 38.32 35.7467 38.32H33.48C32.96 38.32 32.2 38.6 31.8 38.9466L29.6933 40.76C28.7733 41.5466 27.2667 41.5466 26.3333 40.76L24.2267 38.9466C23.8267 38.6 23.08 38.32 22.5467 38.32H20.24C18.8267 38.32 17.6667 37.16 17.6667 35.7466V33.4666C17.6667 32.9466 17.3867 32.2 17.0533 31.8L15.2533 29.68C14.48 28.76 14.48 27.2666 15.2533 26.3466L17.0533 24.2266C17.3867 23.8266 17.6667 23.08 17.6667 22.56V20.2666C17.6667 18.8533 18.8267 17.6933 20.24 17.6933H22.5467C23.0667 17.6933 23.8267 17.4133 24.2267 17.0666L26.3333 15.2666Z" stroke="url(#paint1_linear_57_1488)" stroke-width="1.5" stroke-linecap="round" stroke-linejoin="round"/>
<defs>
<linearGradient id="paint0_linear_57_1488" x1="23.1733" y1="30.6061" x2="33.5976" y2="26.9759" gradientUnits="userSpaceOnUse">
<stop offset="0.102194" stop-color="#FFB30F"/>
<stop offset="1" stop-color="#EDCB00"/>
</linearGradient>
<linearGradient id="paint1_linear_57_1488" x1="14.6733" y1="38.7852" x2="45.3131" y2="31.6513" gradientUnits="userSpaceOnUse">
<stop offset="0.102194" stop-color="#FFB30F"/>
<stop offset="1" stop-color="#EDCB00"/>
</linearGradient>
</defs>
</svg>
