<svg width="24" height="24" viewBox="0 0 24 24" fill="none" xmlns="http://www.w3.org/2000/svg">
<path d="M15.03 10.77L20.69 6.97998C21.26 6.59998 21.41 5.81998 21.03 5.25998L19.21 2.54996C18.83 1.97996 18.05 1.82996 17.49 2.20996L11.83 5.99997L15.03 10.77Z" stroke="#4B525A" stroke-width="1.5" stroke-linecap="round" stroke-linejoin="round"/>
<path d="M12.1738 6.47932L7.39612 9.6792L9.95602 13.5013L14.7337 10.3015L12.1738 6.47932Z" stroke="#4B525A" stroke-width="1.5" stroke-linecap="round" stroke-linejoin="round"/>
<path d="M5.82998 15.8999L9.77998 13.2599L7.53998 9.91992L3.58998 12.5599C3.12998 12.8699 3.00998 13.4899 3.31998 13.9499L4.44998 15.6299C4.74998 16.0799 5.36998 16.1999 5.82998 15.8999Z" stroke="#4B525A" stroke-width="1.5" stroke-linecap="round" stroke-linejoin="round"/>
<path d="M12.05 12.2L7.56 21.9999" stroke="#4B525A" stroke-width="1.5" stroke-linecap="round" stroke-linejoin="round"/>
<path d="M12 12.2L16.44 21.9999" stroke="#4B525A" stroke-width="1.5" stroke-linecap="round" stroke-linejoin="round"/>
</svg>
