<svg width="20" height="20" viewBox="0 0 20 20" fill="none" xmlns="http://www.w3.org/2000/svg">
<path d="M1.66687 1.66656H3.11687C4.01687 1.66656 4.7252 2.44156 4.6502 3.33323L3.95854 11.6332C3.84187 12.9916 4.91686 14.1582 6.28353 14.1582H15.1585C16.3585 14.1582 17.4085 13.1749 17.5002 11.9832L17.9502 5.73324C18.0502 4.3499 17.0002 3.22489 15.6085 3.22489H4.85021" stroke="#1B1E21" stroke-width="1.875" stroke-miterlimit="10" stroke-linecap="round" stroke-linejoin="round"/>
<path d="M13.5417 18.3333C14.117 18.3333 14.5833 17.867 14.5833 17.2917C14.5833 16.7164 14.117 16.25 13.5417 16.25C12.9664 16.25 12.5 16.7164 12.5 17.2917C12.5 17.867 12.9664 18.3333 13.5417 18.3333Z" stroke="#1B1E21" stroke-width="1.875" stroke-miterlimit="10" stroke-linecap="round" stroke-linejoin="round"/>
<path d="M6.8748 18.3333C7.45009 18.3333 7.91646 17.867 7.91646 17.2917C7.91646 16.7164 7.45009 16.25 6.8748 16.25C6.2995 16.25 5.83313 16.7164 5.83313 17.2917C5.83313 17.867 6.2995 18.3333 6.8748 18.3333Z" stroke="#1B1E21" stroke-width="1.875" stroke-miterlimit="10" stroke-linecap="round" stroke-linejoin="round"/>
<path d="M7.5 6.66656H17.5" stroke="#1B1E21" stroke-width="1.875" stroke-miterlimit="10" stroke-linecap="round" stroke-linejoin="round"/>
</svg>
