<svg width="27" height="27" viewBox="0 0 27 27" fill="none" xmlns="http://www.w3.org/2000/svg">
<path d="M19.1 25.5H6.74183C5.93407 25.5 5.5302 25.5 5.34318 25.3403C5.1809 25.2017 5.09479 24.9938 5.11153 24.781C5.13083 24.5358 5.41641 24.2503 5.98758 23.6791L17.3248 12.3418C17.8529 11.8138 18.1169 11.5498 18.4213 11.4509C18.6891 11.3639 18.9776 11.3639 19.2454 11.4509C19.5498 11.5498 19.8138 11.8138 20.3418 12.3418L25.5 17.5V19.1M19.1 25.5C21.3402 25.5 22.4603 25.5 23.316 25.064C24.0686 24.6805 24.6805 24.0686 25.064 23.316C25.5 22.4603 25.5 21.3402 25.5 19.1M19.1 25.5H7.9C5.65979 25.5 4.53969 25.5 3.68404 25.064C2.93139 24.6805 2.31947 24.0686 1.93597 23.316C1.5 22.4603 1.5 21.3402 1.5 19.1V7.9C1.5 5.65979 1.5 4.53969 1.93597 3.68404C2.31947 2.93139 2.93139 2.31947 3.68404 1.93597C4.53969 1.5 5.65979 1.5 7.9 1.5H19.1C21.3402 1.5 22.4603 1.5 23.316 1.93597C24.0686 2.31947 24.6805 2.93139 25.064 3.68404C25.5 4.53969 25.5 5.65979 25.5 7.9V19.1M11.5 8.83333C11.5 10.3061 10.3061 11.5 8.83333 11.5C7.36057 11.5 6.16667 10.3061 6.16667 8.83333C6.16667 7.36057 7.36057 6.16667 8.83333 6.16667C10.3061 6.16667 11.5 7.36057 11.5 8.83333Z" stroke="black" stroke-width="2" stroke-linecap="round" stroke-linejoin="round"/>
</svg>
