<svg width="24" height="24" viewBox="0 0 24 24" fill="none" xmlns="http://www.w3.org/2000/svg">
<path d="M18.7021 0.240234H5.48389C4.11815 0.241421 2.8087 0.784482 1.84298 1.7502C0.877255 2.71592 0.334194 4.02538 0.333008 5.39111V18.6082C0.333898 19.9742 0.876828 21.2839 1.84258 22.2499C2.80833 23.2158 4.11796 23.759 5.48389 23.7602H18.7021C20.0679 23.759 21.3773 23.216 22.343 22.2503C23.3088 21.2845 23.8518 19.9751 23.853 18.6094V5.39223C23.8521 4.02631 23.3092 2.71656 22.3434 1.7506C21.3777 0.784636 20.0681 0.241421 18.7021 0.240234ZM18.72 6.40023C18.4985 6.40023 18.282 6.33455 18.0978 6.21148C17.9136 6.08841 17.7701 5.91349 17.6853 5.70884C17.6005 5.50419 17.5784 5.27899 17.6216 5.06173C17.6648 4.84447 17.7715 4.64491 17.9281 4.48827C18.0847 4.33164 18.2843 4.22497 18.5015 4.18175C18.7188 4.13854 18.944 4.16072 19.1487 4.24549C19.3533 4.33026 19.5282 4.47381 19.6513 4.658C19.7744 4.84218 19.84 5.05872 19.84 5.28023C19.84 5.57728 19.722 5.86215 19.512 6.07219C19.302 6.28223 19.0171 6.40023 18.72 6.40023ZM12.093 17.8578C10.9345 17.8578 9.80198 17.5143 8.8387 16.8706C7.87542 16.227 7.12464 15.3122 6.68129 14.2418C6.23794 13.1715 6.12194 11.9937 6.34796 10.8575C6.57398 9.72121 7.13186 8.67748 7.95106 7.85828C8.77026 7.03908 9.81398 6.4812 10.9502 6.25519C12.0865 6.02917 13.2643 6.14517 14.3346 6.58852C15.4049 7.03186 16.3198 7.78265 16.9634 8.74593C17.6071 9.7092 17.9506 10.8417 17.9506 12.0002C17.9491 13.5533 17.3315 15.0424 16.2333 16.1405C15.1351 17.2387 13.6461 17.8563 12.093 17.8578Z" fill="#98A2B3"/>
</svg>
