<svg width="100" height="26" viewBox="0 0 100 26" fill="none" xmlns="http://www.w3.org/2000/svg">
<path d="M7.87949 22.5663V18.7328H11.1285C13.011 18.7328 13.656 17.9258 13.656 16.3368V11.2418C13.656 10.0563 12.8825 9.45129 11.464 9.45129H9.27199C7.72449 9.45129 6.64149 10.0818 6.64149 11.5448C6.64149 13.0328 7.75049 13.5373 9.71049 13.5373C10.484 13.5373 11.464 13.4618 12.3925 13.3103V16.7403C11.4385 16.9673 10.3035 17.1188 9.16899 17.1188C4.70749 17.1188 2.33499 14.9243 2.33499 11.4943C2.33499 7.71128 5.24899 5.59229 9.55599 5.59229H11.903C15.7455 5.59229 17.9635 7.76129 17.9635 11.5948V16.3618C17.9635 20.5738 15.926 22.5663 11.1035 22.5663H7.87949Z" fill="#1B1E21"/>
<path d="M26.756 18.1778C22.759 18.1778 19.8445 15.6053 19.8445 11.8723C19.8445 8.13929 22.7585 5.59229 26.756 5.59229H30.031C32.9965 5.59229 34.441 7.25679 34.441 9.62779C34.441 11.8223 33.203 12.9568 30.2375 12.9568H25.647V10.6618H29.335C30.0055 10.6618 30.341 10.3843 30.341 9.77878C30.341 9.17328 30.0315 8.84579 29.361 8.84579H26.73C25.2085 8.84579 24.1255 9.93028 24.1255 11.8473C24.1255 13.7388 25.2085 14.7228 26.73 14.7228H33.745V18.1783H26.756V18.1778Z" fill="#1B1E21"/>
<path d="M40.1655 18.1778C37.4575 18.1778 36.117 16.6393 36.117 14.4703C36.117 12.2508 37.458 10.7373 40.1655 10.7373H44.9625V13.1838H41.1455C40.501 13.1838 40.1915 13.4863 40.1915 14.0668C40.1915 14.6218 40.501 14.9498 41.094 14.9498H46.226V11.3178C46.226 9.90528 45.4785 9.17379 43.9825 9.17379H36.813V5.59229H44.034C48.289 5.59229 50.4555 7.76129 50.4555 11.5948V18.1778H40.1655Z" fill="#1B1E21"/>
<path d="M52.853 18.1778V11.5948C52.853 7.78629 55.071 5.59229 59.2745 5.59229H62.885V9.42579H59.3775C57.9075 9.42579 57.1595 10.1318 57.1595 11.5698V18.1778H52.853Z" fill="#1B1E21"/>
<path d="M73.272 8.6483H71.152C70.8935 8.6483 70.6835 8.4388 70.6835 8.1798V5.5918H73.74V8.1803C73.7405 8.4388 73.5305 8.6483 73.272 8.6483Z" fill="#1B1E21"/>
<path d="M70.9035 18.1778C66.6485 18.1778 64.4565 16.0088 64.4565 12.1753V5.59229H68.7635V12.1753C68.7635 13.5878 69.537 14.3443 71.007 14.3443H73.2765C74.7725 14.3443 75.52 13.5878 75.52 12.1753V5.59229H79.827V12.1753C79.827 16.0088 77.635 18.1778 73.38 18.1778H70.9035Z" fill="url(#paint0_linear_316_14133)"/>
<path d="M81.9665 22.5663V11.5948C81.9665 7.76129 84.1585 5.59229 88.4135 5.59229H90.683C94.68 5.59229 97.62 7.96328 97.62 12.1498C97.62 15.9078 95.2475 18.3038 90.657 18.3038C89.548 18.3038 88.4135 18.1778 87.5365 17.9508V14.1423C88.4135 14.3693 89.419 14.4953 90.193 14.4953C92.179 14.4953 93.3135 13.8648 93.3135 12.0238C93.3135 10.2333 92.2045 9.45129 90.683 9.45129H88.517C87.047 9.45129 86.2735 10.1828 86.2735 11.5953V22.5668H81.9665V22.5663Z" fill="url(#paint1_linear_316_14133)"/>
<defs>
<linearGradient id="paint0_linear_316_14133" x1="64.4565" y1="16.9676" x2="81.6755" y2="12.0719" gradientUnits="userSpaceOnUse">
<stop offset="0.102194" stop-color="#FFB30F"/>
<stop offset="1" stop-color="#EDCB00"/>
</linearGradient>
<linearGradient id="paint1_linear_316_14133" x1="81.9665" y1="20.9346" x2="100.085" y2="17.0448" gradientUnits="userSpaceOnUse">
<stop offset="0.102194" stop-color="#FFB30F"/>
<stop offset="1" stop-color="#EDCB00"/>
</linearGradient>
</defs>
</svg>
