<svg width="100" height="26" viewBox="0 0 100 26" fill="none" xmlns="http://www.w3.org/2000/svg">
<path d="M7.87946 22.431V18.5975H11.1285C13.011 18.5975 13.656 17.7905 13.656 16.2015V11.1065C13.656 9.92103 12.8825 9.31603 11.464 9.31603H9.27196C7.72446 9.31603 6.64146 9.94653 6.64146 11.4095C6.64146 12.8975 7.75046 13.402 9.71046 13.402C10.484 13.402 11.464 13.3265 12.3925 13.175V16.605C11.4385 16.832 10.3035 16.9835 9.16896 16.9835C4.70746 16.9835 2.33496 14.789 2.33496 11.359C2.33496 7.57603 5.24896 5.45703 9.55596 5.45703H11.903C15.7455 5.45703 17.9635 7.62603 17.9635 11.4595V16.2265C17.9635 20.4385 15.926 22.431 11.1035 22.431H7.87946Z" fill="white"/>
<path d="M26.7557 18.0425C22.7587 18.0425 19.8442 15.47 19.8442 11.737C19.8442 8.00403 22.7582 5.45703 26.7557 5.45703H30.0307C32.9962 5.45703 34.4407 7.12153 34.4407 9.49253C34.4407 11.687 33.2027 12.8215 30.2372 12.8215H25.6467V10.5265H29.3347C30.0052 10.5265 30.3407 10.249 30.3407 9.64353C30.3407 9.03803 30.0312 8.71053 29.3607 8.71053H26.7297C25.2082 8.71053 24.1252 9.79503 24.1252 11.712C24.1252 13.6035 25.2082 14.5875 26.7297 14.5875H33.7447V18.043H26.7557V18.0425Z" fill="white"/>
<path d="M40.1657 18.0425C37.4577 18.0425 36.1172 16.504 36.1172 14.335C36.1172 12.1155 37.4582 10.602 40.1657 10.602H44.9627V13.0485H41.1457C40.5012 13.0485 40.1917 13.351 40.1917 13.9315C40.1917 14.4865 40.5012 14.8145 41.0942 14.8145H46.2262V11.1825C46.2262 9.77003 45.4787 9.03853 43.9827 9.03853H36.8132V5.45703H44.0342C48.2892 5.45703 50.4557 7.62603 50.4557 11.4595V18.0425H40.1657Z" fill="white"/>
<path d="M52.853 18.0425V11.4595C52.853 7.65103 55.071 5.45703 59.2745 5.45703H62.885V9.29053H59.3775C57.9075 9.29053 57.1595 9.99653 57.1595 11.4345V18.0425H52.853Z" fill="white"/>
<path d="M73.2721 8.51304H71.1521C70.8936 8.51304 70.6836 8.30354 70.6836 8.04454V5.45654H73.7401V8.04504C73.7406 8.30354 73.5306 8.51304 73.2721 8.51304Z" fill="white"/>
<path d="M70.9035 18.0425C66.6485 18.0425 64.4565 15.8735 64.4565 12.04V5.45703H68.7635V12.04C68.7635 13.4525 69.537 14.209 71.007 14.209H73.2765C74.7725 14.209 75.52 13.4525 75.52 12.04V5.45703H79.827V12.04C79.827 15.8735 77.635 18.0425 73.38 18.0425H70.9035Z" fill="url(#paint0_linear_796_439)"/>
<path d="M81.9663 22.431V11.4595C81.9663 7.62603 84.1583 5.45703 88.4133 5.45703H90.6828C94.6798 5.45703 97.6198 7.82803 97.6198 12.0145C97.6198 15.7725 95.2473 18.1685 90.6568 18.1685C89.5478 18.1685 88.4133 18.0425 87.5363 17.8155V14.007C88.4133 14.234 89.4188 14.36 90.1928 14.36C92.1788 14.36 93.3133 13.7295 93.3133 11.8885C93.3133 10.098 92.2043 9.31603 90.6828 9.31603H88.5168C87.0468 9.31603 86.2733 10.0475 86.2733 11.46V22.4315H81.9663V22.431Z" fill="url(#paint1_linear_796_439)"/>
<defs>
<linearGradient id="paint0_linear_796_439" x1="64.4565" y1="16.8324" x2="81.6756" y2="11.9367" gradientUnits="userSpaceOnUse">
<stop offset="0.102194" stop-color="#FFB30F"/>
<stop offset="1" stop-color="#EDCB00"/>
</linearGradient>
<linearGradient id="paint1_linear_796_439" x1="81.9663" y1="20.7994" x2="100.085" y2="16.9095" gradientUnits="userSpaceOnUse">
<stop offset="0.102194" stop-color="#FFB30F"/>
<stop offset="1" stop-color="#EDCB00"/>
</linearGradient>
</defs>
</svg>
