<svg width="32" height="32" viewBox="0 0 32 32" fill="none" xmlns="http://www.w3.org/2000/svg">
<rect width="32" height="32" rx="16" fill="#4B525A"/>
<path d="M16.4415 23.0167H11.1748C8.5415 23.0167 7.6665 21.2667 7.6665 19.5084V12.4917C7.6665 9.8584 8.5415 8.9834 11.1748 8.9834H16.4415C19.0748 8.9834 19.9498 9.8584 19.9498 12.4917V19.5084C19.9498 22.1417 19.0665 23.0167 16.4415 23.0167Z" stroke="white" stroke-width="1.5" stroke-linecap="round" stroke-linejoin="round"/>
<path d="M22.2669 20.2501L19.9502 18.6251V13.3668L22.2669 11.7418C23.4002 10.9501 24.3335 11.4334 24.3335 12.8251V19.1751C24.3335 20.5668 23.4002 21.0501 22.2669 20.2501Z" stroke="white" stroke-width="1.5" stroke-linecap="round" stroke-linejoin="round"/>
<path d="M15.5835 15.1665C16.2739 15.1665 16.8335 14.6069 16.8335 13.9165C16.8335 13.2261 16.2739 12.6665 15.5835 12.6665C14.8931 12.6665 14.3335 13.2261 14.3335 13.9165C14.3335 14.6069 14.8931 15.1665 15.5835 15.1665Z" stroke="white" stroke-width="1.5" stroke-linecap="round" stroke-linejoin="round"/>
</svg>
