<svg width="32" height="32" viewBox="0 0 32 32" fill="none" xmlns="http://www.w3.org/2000/svg">
<rect width="32" height="32" rx="16" fill="#4B525A"/>
<path d="M13.9167 17.4585C13.9167 18.2669 14.5418 18.9169 15.3084 18.9169H16.8751C17.5417 18.9169 18.0834 18.3502 18.0834 17.6419C18.0834 16.8835 17.7501 16.6085 17.2584 16.4335L14.7501 15.5585C14.2584 15.3835 13.9251 15.1169 13.9251 14.3502C13.9251 13.6502 14.4667 13.0752 15.1334 13.0752H16.7001C17.4667 13.0752 18.0918 13.7252 18.0918 14.5335" stroke="white" stroke-width="1.5" stroke-linecap="round" stroke-linejoin="round"/>
<path d="M16 12.25V19.75" stroke="white" stroke-width="1.5" stroke-linecap="round" stroke-linejoin="round"/>
<path d="M24.3334 15.9998C24.3334 20.5998 20.6001 24.3332 16.0001 24.3332C11.4001 24.3332 7.66675 20.5998 7.66675 15.9998C7.66675 11.3998 11.4001 7.6665 16.0001 7.6665" stroke="white" stroke-width="1.5" stroke-linecap="round" stroke-linejoin="round"/>
<path d="M20.1667 8.5V11.8333H23.5001" stroke="white" stroke-width="1.5" stroke-linecap="round" stroke-linejoin="round"/>
<path d="M24.3334 7.6665L20.1667 11.8332" stroke="white" stroke-width="1.5" stroke-linecap="round" stroke-linejoin="round"/>
</svg>
