<svg width="32" height="32" viewBox="0 0 32 32" fill="none" xmlns="http://www.w3.org/2000/svg">
<rect width="32" height="32" rx="16" fill="white"/>
<path d="M24.3332 9.89174V19.9501C24.3332 20.7501 23.6832 21.5001 22.8832 21.6001L22.6082 21.6334C20.7915 21.8751 17.9915 22.8001 16.3915 23.6834C16.1748 23.8084 15.8165 23.8084 15.5915 23.6834L15.5581 23.6668C13.9581 22.7918 11.1665 21.8751 9.3582 21.6334L9.1165 21.6001C8.3165 21.5001 7.6665 20.7501 7.6665 19.9501V9.8834C7.6665 8.89173 8.47481 8.14174 9.46648 8.22508C11.2165 8.36674 13.8665 9.2501 15.3498 10.1751L15.5581 10.3001C15.7998 10.4501 16.1999 10.4501 16.4415 10.3001L16.5832 10.2084C17.1082 9.88341 17.7748 9.55841 18.4998 9.26674C19.5915 8.83341 20.8082 8.48345 21.8332 8.31678C22.0582 8.27511 22.2749 8.25008 22.4749 8.23342H22.5249C23.5165 8.15008 24.3332 8.89174 24.3332 9.89174Z" stroke="#1B1E21" stroke-width="1.5" stroke-linecap="round" stroke-linejoin="round"/>
<path opacity="0.4" d="M16 10.5752V23.0752" stroke="#1B1E21" stroke-width="1.5" stroke-linecap="round" stroke-linejoin="round"/>
<path opacity="0.4" d="M21.8333 8.31689V12.6669L20.1667 11.5585L18.5 12.6669V9.26686C19.5917 8.83352 20.8083 8.48356 21.8333 8.31689Z" stroke="#1B1E21" stroke-width="1.5" stroke-linecap="round" stroke-linejoin="round"/>
</svg>
