<svg width="40" height="40" viewBox="0 0 40 40" fill="none" xmlns="http://www.w3.org/2000/svg">
<rect width="40" height="40" rx="20" fill="#FBF7EE"/>
<path d="M21.2594 11.6L13.0494 20.29C12.7394 20.62 12.4394 21.27 12.3794 21.72L12.0094 24.96C11.8794 26.13 12.7194 26.93 13.8794 26.73L17.0994 26.18C17.5494 26.1 18.1794 25.77 18.4894 25.43L26.6994 16.74C28.1194 15.24 28.7594 13.53 26.5494 11.44C24.3494 9.37 22.6794 10.1 21.2594 11.6Z" stroke="url(#paint0_linear_3470_32916)" stroke-width="1.5" stroke-miterlimit="10" stroke-linecap="round" stroke-linejoin="round"/>
<path opacity="0.4" d="M19.8906 13.05C20.3206 15.81 22.5606 17.92 25.3406 18.2" stroke="url(#paint1_linear_3470_32916)" stroke-width="1.5" stroke-miterlimit="10" stroke-linecap="round" stroke-linejoin="round"/>
<path opacity="0.4" d="M11 30H29" stroke="url(#paint2_linear_3470_32916)" stroke-width="1.5" stroke-miterlimit="10" stroke-linecap="round" stroke-linejoin="round"/>
<defs>
<linearGradient id="paint0_linear_3470_32916" x1="11.9961" y1="25.1645" x2="30.436" y2="21.0279" gradientUnits="userSpaceOnUse">
<stop offset="0.102194" stop-color="#FFB30F"/>
<stop offset="1" stop-color="#EDCB00"/>
</linearGradient>
<linearGradient id="paint1_linear_3470_32916" x1="19.8906" y1="17.7048" x2="26.112" y2="16.1721" gradientUnits="userSpaceOnUse">
<stop offset="0.102194" stop-color="#FFB30F"/>
<stop offset="1" stop-color="#EDCB00"/>
</linearGradient>
<linearGradient id="paint2_linear_3470_32916" x1="11" y1="30.9038" x2="12.1743" y2="25.983" gradientUnits="userSpaceOnUse">
<stop offset="0.102194" stop-color="#FFB30F"/>
<stop offset="1" stop-color="#EDCB00"/>
</linearGradient>
</defs>
</svg>
