<svg width="40" height="40" viewBox="0 0 40 40" fill="none" xmlns="http://www.w3.org/2000/svg">
<rect width="40" height="40" rx="20" fill="#E3ECFC"/>
<path d="M20.3 20.22C20.8336 19.7581 21.2616 19.1869 21.5549 18.545C21.8482 17.9032 22 17.2057 22 16.5C22 15.1739 21.4732 13.9021 20.5355 12.9645C19.5979 12.0268 18.3261 11.5 17 11.5C15.6739 11.5 14.4021 12.0268 13.4645 12.9645C12.5268 13.9021 12 15.1739 12 16.5C12 17.2057 12.1518 17.9032 12.4451 18.545C12.7384 19.1869 13.1664 19.7581 13.7 20.22C12.3001 20.8539 11.1125 21.8775 10.279 23.1685C9.4455 24.4596 9.00147 25.9633 9 27.5C9 27.7652 9.10536 28.0196 9.29289 28.2071C9.48043 28.3946 9.73478 28.5 10 28.5C10.2652 28.5 10.5196 28.3946 10.7071 28.2071C10.8946 28.0196 11 27.7652 11 27.5C11 25.9087 11.6321 24.3826 12.7574 23.2574C13.8826 22.1321 15.4087 21.5 17 21.5C18.5913 21.5 20.1174 22.1321 21.2426 23.2574C22.3679 24.3826 23 25.9087 23 27.5C23 27.7652 23.1054 28.0196 23.2929 28.2071C23.4804 28.3946 23.7348 28.5 24 28.5C24.2652 28.5 24.5196 28.3946 24.7071 28.2071C24.8946 28.0196 25 27.7652 25 27.5C24.9985 25.9633 24.5545 24.4596 23.721 23.1685C22.8875 21.8775 21.6999 20.8539 20.3 20.22ZM17 19.5C16.4067 19.5 15.8266 19.3241 15.3333 18.9944C14.8399 18.6648 14.4554 18.1962 14.2284 17.6481C14.0013 17.0999 13.9419 16.4967 14.0576 15.9147C14.1734 15.3328 14.4591 14.7982 14.8787 14.3787C15.2982 13.9591 15.8328 13.6734 16.4147 13.5576C16.9967 13.4419 17.5999 13.5013 18.1481 13.7284C18.6962 13.9554 19.1648 14.3399 19.4944 14.8333C19.8241 15.3266 20 15.9067 20 16.5C20 17.2956 19.6839 18.0587 19.1213 18.6213C18.5587 19.1839 17.7956 19.5 17 19.5ZM26.74 19.82C27.38 19.0993 27.798 18.2091 27.9438 17.2563C28.0896 16.3036 27.9569 15.3291 27.5618 14.45C27.1666 13.5709 26.5258 12.8248 25.7165 12.3014C24.9071 11.7781 23.9638 11.4997 23 11.5C22.7348 11.5 22.4804 11.6054 22.2929 11.7929C22.1054 11.9804 22 12.2348 22 12.5C22 12.7652 22.1054 13.0196 22.2929 13.2071C22.4804 13.3946 22.7348 13.5 23 13.5C23.7956 13.5 24.5587 13.8161 25.1213 14.3787C25.6839 14.9413 26 15.7044 26 16.5C25.9986 17.0252 25.8593 17.5409 25.5961 17.9954C25.3328 18.4499 24.9549 18.8274 24.5 19.09C24.3517 19.1755 24.2279 19.2977 24.1404 19.4447C24.0528 19.5918 24.0045 19.7589 24 19.93C23.9958 20.0998 24.0349 20.2678 24.1137 20.4183C24.1924 20.5687 24.3081 20.6967 24.45 20.79L24.84 21.05L24.97 21.12C26.1754 21.6917 27.1923 22.596 27.901 23.7263C28.6096 24.8566 28.9805 26.1659 28.97 27.5C28.97 27.7652 29.0754 28.0196 29.2629 28.2071C29.4504 28.3946 29.7048 28.5 29.97 28.5C30.2352 28.5 30.4896 28.3946 30.6771 28.2071C30.8646 28.0196 30.97 27.7652 30.97 27.5C30.9782 25.9654 30.5938 24.4543 29.8535 23.1101C29.1131 21.7659 28.0413 20.6333 26.74 19.82Z" fill="#4481EB"/>
</svg>
