<svg width="20" height="24" viewBox="0 0 20 24" fill="none" xmlns="http://www.w3.org/2000/svg">
<path d="M10.0003 10.6667C11.0552 10.6667 12.0863 10.3539 12.9634 9.76784C13.8404 9.18181 14.524 8.34885 14.9277 7.37431C15.3314 6.39978 15.437 5.32742 15.2312 4.29285C15.0254 3.25829 14.5174 2.30798 13.7716 1.5621C13.0257 0.816219 12.0754 0.308269 11.0408 0.102481C10.0062 -0.103307 8.93389 0.00231083 7.95935 0.405978C6.98481 0.809646 6.15186 1.49323 5.56582 2.37029C4.97979 3.24736 4.66699 4.2785 4.66699 5.33334C4.66699 6.74782 5.2289 8.10438 6.22909 9.10457C7.22928 10.1048 8.58584 10.6667 10.0003 10.6667ZM18.0003 24C18.354 24 18.6931 23.8595 18.9431 23.6095C19.1932 23.3594 19.3337 23.0203 19.3337 22.6667C19.3337 20.1913 18.3503 17.8173 16.6 16.067C14.8497 14.3167 12.4757 13.3333 10.0003 13.3333C7.52497 13.3333 5.151 14.3167 3.40066 16.067C1.65032 17.8173 0.666992 20.1913 0.666992 22.6667C0.666992 23.0203 0.807468 23.3594 1.05752 23.6095C1.30757 23.8595 1.6467 24 2.00033 24H18.0003Z" fill="#666481"/>
</svg>
