<svg width="150" height="151" viewBox="0 0 150 151" fill="none" xmlns="http://www.w3.org/2000/svg">
<path d="M75 122.49C103.319 122.49 126.276 113.484 126.276 102.375C126.276 91.2657 103.319 82.2598 75 82.2598C46.6809 82.2598 23.7236 91.2657 23.7236 102.375C23.7236 113.484 46.6809 122.49 75 122.49Z" fill="#FFF7E7"/>
<path d="M41.7626 89.7292C41.457 89.2334 40.807 89.0792 40.3098 89.3848L39.4112 89.939L38.857 89.0403C38.5515 88.5445 37.9015 88.3903 37.4042 88.6959C36.9084 89.0014 36.7542 89.6514 37.0598 90.1487L37.614 91.0473L38.7223 92.8445L40.5195 91.7362L41.4181 91.182C41.914 90.8751 42.0681 90.2251 41.7626 89.7292Z" fill="#FFB30F"/>
<path d="M43.9013 54.3209H39.936L44.1999 52.4473L43.9013 54.3209Z" fill="#EB5017"/>
<path d="M43.9014 54.6333H39.9361C39.7889 54.6333 39.6611 54.5292 39.6306 54.3847C39.6 54.2403 39.675 54.0945 39.8111 54.0347L44.075 52.1625C44.1792 52.1167 44.3014 52.132 44.3917 52.2014C44.4819 52.2708 44.5278 52.3847 44.5097 52.4986L44.2111 54.3708C44.1847 54.5208 44.0542 54.6333 43.9014 54.6333ZM41.4236 54.0083H43.6333L43.8 52.9653L41.4236 54.0083Z" fill="#FFECE5"/>
<path d="M97.2181 31.1306L93.8487 52.2626L93.5195 54.3209L93.1125 56.8737L94.7084 55.9417L96.8153 58.8139L97.1431 56.7556L100.514 35.6237L97.2181 31.1306Z" fill="#FCD2C2"/>
<path d="M96.8152 59.1264C96.7166 59.1264 96.6236 59.0806 96.5638 58.9986L94.6236 56.3528L93.2708 57.1431C93.1666 57.2042 93.0361 57.2 92.9361 57.1306C92.8361 57.0611 92.7847 56.9431 92.8041 56.8236L96.9097 31.0806C96.9291 30.9556 97.0222 30.8556 97.1444 30.8264C97.2666 30.7972 97.3958 30.8431 97.4694 30.9458L100.765 35.4389C100.815 35.5056 100.835 35.5903 100.822 35.6736L97.1236 58.8639C97.1041 58.9889 97.0111 59.0889 96.8888 59.1181C96.8638 59.1236 96.8402 59.1264 96.8152 59.1264ZM94.7083 55.6292C94.8055 55.6292 94.8999 55.6736 94.9611 55.7569L96.6249 58.0264L100.185 35.7042L97.4083 31.9194L93.5249 56.2708L94.5499 55.6708C94.5999 55.6431 94.6541 55.6292 94.7083 55.6292Z" fill="#FFE7B5"/>
<path d="M39.9333 54.3208H43.9014L43.4931 56.8777L39.9333 54.3208Z" fill="#FFDC91"/>
<path d="M43.493 57.1902C43.4292 57.1902 43.3653 57.1708 43.3111 57.1319L39.7514 54.575C39.6417 54.4958 39.5944 54.3541 39.6361 54.225C39.6778 54.0958 39.7972 54.0083 39.9333 54.0083H43.9C43.9917 54.0083 44.0778 54.0486 44.1375 54.118C44.1972 54.1875 44.2222 54.2791 44.2083 54.3694L43.8 56.9264C43.7833 57.0333 43.7111 57.1236 43.6111 57.1652C43.575 57.1819 43.5333 57.1902 43.493 57.1902ZM40.9042 54.6333L43.2639 56.3277L43.5347 54.6333H40.9042Z" fill="#FFECE5"/>
<path d="M97.2182 31.1306L93.8487 52.2626L93.5196 54.3209L93.1126 56.8737L71.7293 69.3723H62.9098L62.7015 70.6778L43.4932 56.8778L43.9015 54.3209L44.2001 52.4473L45.5598 43.9153H58.5876L60.5918 31.3473L60.8529 31.1306H97.2182Z" fill="#FFF7E7"/>
<path d="M62.0028 75.0569L59.3945 91.4124H34.0181L52.5597 80.5763L62.0028 75.0569Z" fill="#FFDC91"/>
<path d="M59.3945 91.4125L62.6903 95.9055H37.3139L34.0181 91.4125H59.3945Z" fill="#FFDC91"/>
<path d="M63.3069 96.218H37.1555L33.4014 91.1H59.5528L63.3069 96.218ZM37.4722 95.593H62.0736L59.2361 91.725H34.6347L37.4722 95.593Z" fill="#FFECE5"/>
<path d="M97.482 54.3209L100.778 58.814L98.3764 73.8654L95.0806 69.3723L97.482 54.3209Z" fill="#FFDC91"/>
<path d="M98.3764 74.1778C98.2778 74.1778 98.1847 74.132 98.125 74.05L94.8292 69.557C94.7792 69.4903 94.7597 69.4056 94.7722 69.3223L97.1722 54.2709C97.1917 54.1459 97.2847 54.0459 97.407 54.0167C97.5292 53.9875 97.6583 54.0334 97.732 54.1361L101.028 58.6292C101.078 58.6959 101.097 58.7806 101.085 58.8639L98.6847 73.9153C98.6653 74.0403 98.5722 74.1403 98.45 74.1695C98.4264 74.175 98.4014 74.1778 98.3764 74.1778ZM95.4097 69.2931L98.1861 73.0778L100.449 58.8945L97.6722 55.1098L95.4097 69.2931Z" fill="#FFECE5"/>
<path d="M111.396 69.3723L114.692 73.8654L109.847 104.238L106.552 99.7445L111.396 69.3723Z" fill="#FFDC91"/>
<path d="M109.847 104.55C109.749 104.55 109.656 104.504 109.596 104.422L106.3 99.9292C106.25 99.8625 106.231 99.7778 106.243 99.6945L111.088 69.3223C111.107 69.1973 111.2 69.0973 111.322 69.0681C111.445 69.0389 111.574 69.0848 111.647 69.1875L114.943 73.6806C114.993 73.7473 115.013 73.832 115 73.9153L110.156 104.288C110.136 104.413 110.043 104.513 109.921 104.542C109.897 104.547 109.872 104.55 109.847 104.55ZM106.881 99.6653L109.657 103.45L114.363 73.9459L111.586 70.1611L106.881 99.6653Z" fill="#FFECE5"/>
<path d="M97.375 99.7444L97.1861 100.928L95.9458 108.703L99.2416 113.197L100.482 105.421L100.671 104.237L97.375 99.7444Z" fill="#FFDC91"/>
<path d="M99.2416 113.51C99.143 113.51 99.05 113.464 98.9902 113.382L95.6944 108.888C95.6444 108.821 95.625 108.736 95.6375 108.653L97.0666 99.6945C97.0861 99.5695 97.1791 99.4695 97.3014 99.4403C97.4236 99.4111 97.5527 99.457 97.6263 99.5597L100.922 104.053C100.972 104.119 100.992 104.204 100.979 104.288L99.55 113.246C99.5305 113.371 99.4375 113.471 99.3152 113.5C99.2902 113.507 99.2666 113.51 99.2416 113.51ZM96.275 108.624L99.0514 112.408L100.342 104.318L97.5652 100.533L96.275 108.624Z" fill="#FFECE5"/>
<path d="M88.0874 99.7444L89.1263 100.928L95.9457 108.703L97.186 100.928L97.3749 99.7444H88.0874Z" fill="#FFDC91"/>
<path d="M95.9459 109.015C95.857 109.015 95.7708 108.978 95.7111 108.908L87.8528 99.9499C87.7722 99.8583 87.7528 99.7263 87.8028 99.6152C87.8528 99.5041 87.9653 99.4319 88.0875 99.4319H97.3736C97.4653 99.4319 97.5514 99.4722 97.6111 99.5416C97.6708 99.611 97.6958 99.7027 97.682 99.793L96.2528 108.751C96.2334 108.871 96.1472 108.969 96.0306 109.003C96.0042 109.012 95.975 109.015 95.9459 109.015ZM88.7778 100.057L95.7417 107.997L97.0084 100.057H88.7778Z" fill="#FFECE5"/>
<path d="M39.9333 54.3208L43.4931 56.8777L62.7014 70.6777L62.0028 75.0569L52.5597 80.5764L34.0181 91.4125L39.9333 54.3208Z" fill="#FFB30F"/>
<path d="M34.018 91.725C33.9568 91.725 33.8944 91.707 33.8416 91.6709C33.7416 91.6028 33.6902 91.4833 33.7096 91.3639L39.6249 54.2722C39.6416 54.1653 39.7138 54.075 39.8138 54.0334C39.9138 53.9917 40.0277 54.0042 40.1166 54.0681L62.8846 70.425C62.9805 70.4945 63.0291 70.6111 63.011 70.7278L62.3124 75.107C62.2971 75.2 62.243 75.2806 62.161 75.3278L34.1763 91.682C34.1263 91.7111 34.0721 91.725 34.018 91.725ZM40.1624 54.8695L34.4305 90.8097L61.718 74.8611L62.3624 70.8181L40.1624 54.8695Z" fill="#FFECE5"/>
<path d="M97.482 54.3208L95.0806 69.3722H71.7292L97.482 54.3208Z" fill="#FFB30F"/>
<path d="M95.0806 69.6847H71.7292C71.5875 69.6847 71.4639 69.5902 71.4278 69.4541C71.3917 69.318 71.45 69.1736 71.5723 69.1027L97.325 54.0513C97.4292 53.9902 97.5598 53.9944 97.6598 54.0638C97.7598 54.1319 97.8111 54.2513 97.7917 54.3708L95.3889 69.4208C95.3653 69.5736 95.2348 69.6847 95.0806 69.6847ZM72.8834 69.0597H94.8139L97.0681 54.9236L72.8834 69.0597Z" fill="#FFECE5"/>
<path d="M95.0805 69.3722H111.396L106.551 99.7444H97.3749H88.0888H58.0652L59.3944 91.4125L62.0027 75.0569L62.7013 70.6777L62.9096 69.3722H71.7291H95.0805ZM98.4888 87.0764C98.9318 87.0764 99.3444 86.7319 99.4124 86.3069C99.4805 85.8805 99.1777 85.5347 98.7346 85.5347H70.018C69.5777 85.5347 69.1638 85.8805 69.0957 86.3069C69.0277 86.7319 69.3305 87.0764 69.7707 87.0764H98.4888ZM99.586 80.193C100.029 80.193 100.442 79.8472 100.51 79.4208C100.578 78.9958 100.275 78.6514 99.8318 78.6514H71.1166C70.6763 78.6514 70.2624 78.9972 70.1957 79.4208C70.1277 79.8472 70.4305 80.193 70.8707 80.193H99.586ZM97.3902 93.9597C97.8332 93.9597 98.2457 93.6152 98.3138 93.1875C98.3818 92.7625 98.0791 92.4166 97.636 92.4166H80.9485C80.5055 92.4166 80.093 92.7625 80.0249 93.1875C79.9568 93.6139 80.2596 93.9597 80.7027 93.9597H97.3902Z" fill="#FFDC91"/>
<path d="M106.551 100.057H58.0653C57.9736 100.057 57.8875 100.017 57.8277 99.9472C57.768 99.8778 57.743 99.7861 57.7569 99.6958L62.6014 69.3236C62.625 69.1722 62.7569 69.0597 62.9097 69.0597H111.396C111.487 69.0597 111.574 69.1 111.633 69.1694C111.693 69.2389 111.718 69.3305 111.704 69.4208L106.86 99.793C106.836 99.9458 106.706 100.057 106.551 100.057ZM58.4319 99.4319H106.285L111.029 69.6847H63.1764L58.4319 99.4319ZM97.3903 94.2722H80.7014C80.3958 94.2722 80.1139 94.1472 79.9277 93.9305C79.7444 93.7153 79.668 93.4333 79.7153 93.1389C79.8083 92.5597 80.3486 92.1055 80.9472 92.1055H97.6361C97.9416 92.1055 98.2236 92.2305 98.4097 92.4472C98.593 92.6625 98.6694 92.943 98.6222 93.2361C98.5305 93.818 97.9889 94.2722 97.3903 94.2722ZM80.9486 92.7305C80.6597 92.7305 80.3777 92.9625 80.3347 93.2375C80.3166 93.35 80.3416 93.45 80.4055 93.525C80.4736 93.6041 80.5791 93.6472 80.7027 93.6472H97.3916C97.6805 93.6472 97.9625 93.4139 98.0069 93.1389C98.025 93.0277 98 92.9277 97.9361 92.8527C97.868 92.7736 97.7625 92.7291 97.6375 92.7291H80.9486V92.7305ZM98.4889 87.3889H69.7722C69.4666 87.3889 69.1861 87.2639 69 87.0472C68.8166 86.8319 68.7402 86.5514 68.7875 86.2569C68.8805 85.6764 69.4208 85.2222 70.018 85.2222H98.7347C99.0402 85.2222 99.3222 85.3472 99.5083 85.5639C99.6916 85.7791 99.768 86.0611 99.7208 86.3555C99.6277 86.9347 99.0875 87.3889 98.4889 87.3889ZM70.018 85.8472C69.7291 85.8472 69.4486 86.0805 69.4055 86.3555C69.3875 86.4652 69.4125 86.568 69.4764 86.6416C69.5444 86.7208 69.6486 86.7639 69.7722 86.7639H98.4889C98.7777 86.7639 99.0597 86.5319 99.1027 86.2569C99.1208 86.1444 99.0958 86.0444 99.0319 85.9694C98.9639 85.8902 98.8583 85.8472 98.7347 85.8472H70.018ZM99.5861 80.5055H70.8694C70.5639 80.5055 70.2833 80.3805 70.0986 80.1639C69.9139 79.9486 69.8389 79.6666 69.8861 79.3722C69.9791 78.793 70.5194 78.3389 71.1166 78.3389H99.8333C100.139 78.3389 100.421 78.4639 100.607 78.6805C100.79 78.8958 100.867 79.1764 100.819 79.4694C100.726 80.0514 100.185 80.5055 99.5861 80.5055ZM71.1166 78.9639C70.8277 78.9639 70.5472 79.1958 70.5041 79.4708C70.4861 79.5819 70.5111 79.6847 70.575 79.7583C70.6416 79.8375 70.7472 79.8805 70.8708 79.8805H99.5875C99.8764 79.8805 100.158 79.6472 100.203 79.3722C100.221 79.2611 100.196 79.1611 100.132 79.0875C100.064 79.0083 99.9583 78.9639 99.8333 78.9639H71.1166Z" fill="#FFECE5"/>
<path d="M99.8319 78.6514C100.275 78.6514 100.578 78.9972 100.51 79.4208C100.442 79.8472 100.029 80.193 99.586 80.193H70.8694C70.4291 80.193 70.1263 79.8472 70.1944 79.4208C70.2624 78.9958 70.6749 78.6514 71.1152 78.6514H99.8319Z" fill="#FFB30F"/>
<path d="M99.5861 80.5125H70.8694C70.5625 80.5125 70.2791 80.3875 70.093 80.168C69.9083 79.9513 69.8319 79.668 69.8791 79.3708C69.9722 78.7889 70.5152 78.3319 71.1152 78.3319H99.8319C100.14 78.3319 100.424 78.4569 100.611 78.6764C100.796 78.893 100.872 79.175 100.825 79.4708C100.732 80.0555 100.187 80.5125 99.5861 80.5125ZM71.1166 78.9708C70.8319 78.9708 70.5541 79.2 70.5097 79.4722C70.4916 79.5833 70.5166 79.6805 70.5791 79.7541C70.6458 79.8319 70.7486 79.8736 70.8708 79.8736H99.5875C99.8736 79.8736 100.153 79.643 100.196 79.3708C100.214 79.2611 100.189 79.1638 100.126 79.0902C100.06 79.0125 99.9555 78.9694 99.8333 78.9694H71.1166V78.9708Z" fill="#FFB30F"/>
<path d="M98.7347 85.5348C99.1778 85.5348 99.4805 85.8806 99.4125 86.307C99.3444 86.732 98.9319 87.0765 98.4889 87.0765H69.7722C69.3319 87.0765 69.0291 86.7306 69.0972 86.307C69.1653 85.8806 69.5778 85.5348 70.0194 85.5348H98.7347Z" fill="#FFB30F"/>
<path d="M98.4889 87.3945H69.7722C69.4653 87.3945 69.1819 87.2695 68.9958 87.05C68.8111 86.8334 68.7347 86.5501 68.7819 86.2556C68.875 85.6723 69.4181 85.2153 70.0181 85.2153H98.7347C99.0431 85.2153 99.3264 85.3403 99.5125 85.5598C99.6972 85.7764 99.7736 86.0598 99.7264 86.357C99.6333 86.9389 99.0903 87.3945 98.4889 87.3945ZM70.0181 85.8528C69.7333 85.8528 69.4556 86.0834 69.4111 86.3556C69.3931 86.4653 69.4181 86.5626 69.4806 86.6362C69.5472 86.7139 69.65 86.757 69.7722 86.757H98.4889C98.775 86.757 99.0542 86.5278 99.0972 86.2556C99.1153 86.1445 99.0903 86.0473 99.0278 85.9737C98.9611 85.8959 98.8569 85.8528 98.7347 85.8528H70.0181Z" fill="#FFB30F"/>
<path d="M97.636 92.4181C98.079 92.4181 98.3818 92.7639 98.3137 93.1875C98.2457 93.6139 97.8332 93.9598 97.3901 93.9598H80.7012C80.2582 93.9598 79.9554 93.6139 80.0235 93.1875C80.0915 92.7625 80.504 92.4181 80.9471 92.4181H97.636Z" fill="#FFB30F"/>
<path d="M97.3902 94.2792H80.7014C80.393 94.2792 80.1097 94.1542 79.9236 93.9347C79.7389 93.7181 79.6625 93.4347 79.7097 93.1375C79.8027 92.5556 80.3458 92.0986 80.9472 92.0986H97.6361C97.9444 92.0986 98.2277 92.2236 98.4152 92.4431C98.6 92.6597 98.6764 92.9417 98.6291 93.2375C98.5361 93.8222 97.9916 94.2792 97.3902 94.2792ZM80.9486 92.7375C80.6625 92.7375 80.3833 92.9667 80.3402 93.2389C80.3222 93.35 80.3472 93.4472 80.4097 93.5209C80.4764 93.5986 80.5805 93.6417 80.7027 93.6417H97.3916C97.6777 93.6417 97.9569 93.4111 98 93.1389C98.018 93.0292 97.993 92.932 97.9305 92.8584C97.8638 92.7806 97.7597 92.7375 97.6375 92.7375H80.9486Z" fill="#FFB30F"/>
<path d="M88.0874 99.7444L91.3832 104.237H61.361L58.0652 99.7444H88.0874Z" fill="#FFDC91"/>
<path d="M91.3832 104.55H61.361C61.261 104.55 61.168 104.503 61.1096 104.422L57.8138 99.9291C57.7443 99.8347 57.7332 99.7083 57.7874 99.6027C57.8402 99.4972 57.9485 99.4319 58.0666 99.4319H88.0888C88.1888 99.4319 88.2818 99.4791 88.3402 99.5597L91.636 104.053C91.7055 104.147 91.7166 104.274 91.6624 104.379C91.6096 104.485 91.5013 104.55 91.3832 104.55ZM61.5193 103.925H90.7666L87.9291 100.057H58.6832L61.5193 103.925Z" fill="#FFECE5"/>
<path d="M95.9457 108.703L89.1263 100.928L88.0874 99.7444L91.3832 104.237L92.4207 105.421L99.2416 113.197L95.9457 108.703Z" fill="#FFDC91"/>
<path d="M99.2416 113.51C99.1541 113.51 99.068 113.474 99.0069 113.403L91.1486 104.444C91.143 104.437 91.1375 104.431 91.1319 104.424L87.8361 99.9305C87.7375 99.7958 87.7625 99.6069 87.893 99.5014C88.0236 99.3972 88.2139 99.4139 88.3236 99.5389L96.1819 108.497C96.1875 108.504 96.193 108.511 96.1986 108.518L99.4944 113.011C99.593 113.146 99.568 113.335 99.4375 113.44C99.3791 113.486 99.3111 113.51 99.2416 113.51Z" fill="#FFECE5"/>
<path d="M106.551 99.7444L109.847 104.237H100.671L97.375 99.7444H106.551Z" fill="#FFDC91"/>
<path d="M109.847 104.55H100.671C100.571 104.55 100.478 104.503 100.419 104.422L97.1236 99.9291C97.0542 99.8347 97.043 99.7083 97.0972 99.6027C97.15 99.4972 97.2583 99.4319 97.3764 99.4319H106.553C106.653 99.4319 106.746 99.4791 106.804 99.5597L110.1 104.053C110.169 104.147 110.181 104.274 110.126 104.379C110.074 104.485 109.965 104.55 109.847 104.55ZM100.829 103.925H109.231L106.393 100.057H97.9917L100.829 103.925Z" fill="#FFECE5"/>
<path d="M62.7013 70.9903C62.6374 70.9903 62.5735 70.9708 62.5194 70.932L43.311 57.132C43.2152 57.0625 43.1666 56.9458 43.1846 56.8292L45.2513 43.8681C45.2638 43.7931 45.3013 43.7264 45.3596 43.6778L60.3916 31.1097L60.6541 30.8917C60.7096 30.8445 60.7805 30.8195 60.8541 30.8195H97.2193C97.311 30.8195 97.3971 30.8597 97.4568 30.9292C97.5166 30.9986 97.5416 31.0903 97.5277 31.1806L93.4221 56.9236C93.4068 57.0167 93.3527 57.0972 93.2707 57.1445L71.8874 69.6431C71.8402 69.6708 71.7846 69.6861 71.7291 69.6861H63.1763L63.0096 70.7278C62.993 70.8347 62.9207 70.925 62.8207 70.9667C62.7832 70.982 62.743 70.9903 62.7013 70.9903ZM43.8318 56.7361L62.4721 70.1292L62.5999 69.3236C62.6235 69.1722 62.7555 69.0597 62.9082 69.0597H71.643L92.8263 56.6778L96.8513 31.4417H60.9666L60.7916 31.5861L45.8499 44.0778L43.8318 56.7361Z" fill="#FFECE5"/>
<path d="M60.5918 31.3472L58.5876 43.9152H45.5598L60.5918 31.3472Z" fill="#FFDC91"/>
<path d="M58.5876 44.2278H45.5598C45.4279 44.2278 45.3112 44.1458 45.2668 44.0222C45.2223 43.8986 45.2598 43.7597 45.3598 43.6764L60.3918 31.1083C60.4918 31.025 60.6334 31.0125 60.7459 31.0764C60.8598 31.1403 60.9209 31.268 60.9001 31.3972L58.8959 43.9653C58.8723 44.1167 58.7418 44.2278 58.5876 44.2278ZM46.4209 43.6028H58.3209L60.1515 32.1222L46.4209 43.6028Z" fill="#FFECE5"/>
<path d="M97.4138 25.6777C102.686 25.6777 106.301 29.7986 105.49 34.8833C104.679 39.968 99.7485 44.0888 94.4777 44.0888C89.2055 44.0888 85.5902 39.968 86.4013 34.8833C87.2124 29.7986 92.1416 25.6777 97.4138 25.6777ZM97.9249 29.3652C98.0707 28.7555 97.6374 28.2277 97.0138 28.2277C96.986 28.2277 96.9596 28.2291 96.9318 28.2305C96.318 28.2708 95.7791 28.7791 95.7263 29.3652L94.9166 38.5819C94.8971 38.7902 95.043 38.9611 95.2624 38.9763C95.2721 38.9763 95.2818 38.9777 95.293 38.9777C95.5235 38.9777 95.7443 38.8055 95.7971 38.5819L97.9249 29.3652ZM94.8846 41.5388C95.4471 41.5388 95.9735 41.1 96.0596 40.5569C96.1457 40.0138 95.761 39.575 95.1985 39.575C94.636 39.575 94.1096 40.0138 94.0235 40.5569C93.936 41.0986 94.3221 41.5388 94.8846 41.5388Z" fill="#FFB30F"/>
<path d="M94.4777 44.4013C91.793 44.4013 89.4402 43.3777 87.8527 41.518C86.3166 39.718 85.6916 37.3444 86.0916 34.8347C86.9249 29.6138 92.0027 25.3652 97.4138 25.3652C100.099 25.3652 102.451 26.3888 104.039 28.2486C105.575 30.0486 106.2 32.4222 105.8 34.9319C104.967 40.1541 99.8874 44.4013 94.4777 44.4013ZM97.4138 25.9902C92.2971 25.9902 87.4957 30.0013 86.7096 34.9333C86.3388 37.2597 86.9138 39.4541 88.3291 41.1125C89.7943 42.8305 91.9791 43.7763 94.4777 43.7763C99.5943 43.7763 104.396 39.7652 105.182 34.8333C105.553 32.5069 104.978 30.3125 103.562 28.6541C102.097 26.9361 99.9124 25.9902 97.4138 25.9902ZM94.8846 41.8513C94.5207 41.8513 94.1846 41.7041 93.9652 41.4458C93.7471 41.1902 93.6582 40.8569 93.7138 40.5069C93.8207 39.8402 94.418 39.3125 95.0985 39.2652C94.9652 39.2291 94.8485 39.1569 94.7596 39.0527C94.643 38.9152 94.5874 38.7388 94.6055 38.5541L95.4152 29.3388C95.4818 28.5944 96.1388 27.9722 96.911 27.9208C96.9443 27.918 96.9791 27.9166 97.0138 27.9166C97.4124 27.9166 97.7763 28.0861 98.0096 28.3833C98.2388 28.675 98.3193 29.0583 98.2291 29.4375L96.0999 38.6541C96.0235 38.9763 95.743 39.2277 95.418 39.2819C95.6943 39.3291 95.9416 39.4638 96.1152 39.6694C96.3332 39.925 96.4221 40.2583 96.3666 40.6083C96.2569 41.3041 95.6041 41.8513 94.8846 41.8513ZM95.1971 39.8861C94.7902 39.8861 94.393 40.2152 94.3305 40.6055C94.3041 40.7722 94.343 40.9263 94.4402 41.0402C94.543 41.1597 94.6999 41.2263 94.8846 41.2263C95.2916 41.2263 95.6888 40.8972 95.7513 40.5069C95.7777 40.3402 95.7388 40.1861 95.6416 40.0722C95.5388 39.9527 95.3805 39.8861 95.1971 39.8861ZM97.0138 28.5402C96.9943 28.5402 96.9749 28.5416 96.9541 28.543C96.4943 28.5736 96.0763 28.9625 96.0374 29.393L95.2277 38.6097C95.2263 38.6263 95.2291 38.6388 95.236 38.6472C95.2443 38.6569 95.2624 38.6638 95.2832 38.6652C95.3777 38.6652 95.4721 38.5916 95.4916 38.5111L97.6207 29.2958C97.6207 29.2944 97.6207 29.2944 97.6207 29.293C97.668 29.0986 97.6305 28.9125 97.5193 28.7694C97.4041 28.6236 97.2207 28.5402 97.0138 28.5402Z" fill="#FFF7E7"/>
<path d="M95.1971 39.5735C95.7596 39.5735 96.1457 40.0124 96.0582 40.5554C95.9707 41.0985 95.4457 41.5374 94.8832 41.5374C94.3207 41.5374 93.9346 41.0985 94.0221 40.5554C94.1096 40.0124 94.6346 39.5735 95.1971 39.5735Z" fill="#FFECE5"/>
<path d="M94.8846 41.6083C94.5874 41.6083 94.3262 41.4944 94.1499 41.2874C93.979 41.0874 93.9096 40.8235 93.954 40.5458C94.0457 39.9722 94.604 39.5055 95.1971 39.5055C95.4943 39.5055 95.7554 39.6194 95.9318 39.8263C96.1026 40.0263 96.1721 40.2902 96.1276 40.5694C96.036 41.1402 95.4776 41.6083 94.8846 41.6083ZM95.1971 39.643C94.6679 39.643 94.1721 40.0569 94.0901 40.5666C94.0526 40.8041 94.111 41.0277 94.254 41.1972C94.404 41.3722 94.6262 41.4694 94.8832 41.4694C95.4124 41.4694 95.9082 41.0555 95.9901 40.5458C96.0276 40.3083 95.9693 40.0847 95.8262 39.9152C95.6762 39.7402 95.454 39.643 95.1971 39.643Z" fill="#FFECE5"/>
<path d="M97.0137 28.2277C97.6373 28.2277 98.0706 28.7541 97.9248 29.3652L95.7956 38.5818C95.7428 38.8054 95.522 38.9777 95.2914 38.9777C95.2817 38.9777 95.272 38.9777 95.2609 38.9763C95.0415 38.961 94.8956 38.7902 94.9151 38.5818L95.7248 29.3652C95.7776 28.7791 96.3165 28.2721 96.9303 28.2304C96.9595 28.2291 96.9859 28.2277 97.0137 28.2277Z" fill="#FFECE5"/>
<path d="M95.2914 39.0471C95.2803 39.0471 95.2678 39.0471 95.2567 39.0457C95.1303 39.0374 95.0192 38.9832 94.9442 38.8944C94.8706 38.8082 94.8359 38.6944 94.847 38.5749L95.6567 29.3582C95.7123 28.7416 96.2817 28.2041 96.9262 28.161C97.2831 28.1346 97.6137 28.2735 97.8178 28.5319C98.0012 28.7652 98.0651 29.0735 97.9914 29.3805L95.8623 38.5971C95.8039 38.8541 95.5581 39.0471 95.2914 39.0471ZM97.0137 28.2971C96.9887 28.2971 96.9623 28.2985 96.9359 28.2999C96.3553 28.3388 95.8442 28.8194 95.7956 29.3707L94.9859 38.5874C94.9789 38.6694 95.0012 38.7457 95.0512 38.8041C95.1026 38.8638 95.1789 38.9013 95.2678 38.9069C95.4692 38.9194 95.6831 38.7652 95.7289 38.5666L97.8581 29.3499C97.922 29.0805 97.8706 28.8207 97.7109 28.6194C97.5484 28.4152 97.2942 28.2971 97.0137 28.2971Z" fill="#FFECE5"/>
</svg>
