<svg width="561" height="516" viewBox="0 0 561 516" fill="none" xmlns="http://www.w3.org/2000/svg">
<g opacity="0.4">
<path d="M91.6162 370.09L91.6161 370.09C90.0959 370.639 89.0257 371.424 88.2734 372.385C87.5186 373.349 87.0612 374.52 86.8137 375.871C86.314 378.599 86.6835 381.956 87.0876 385.626L87.0927 385.671C87.8879 392.893 88.81 401.267 82.5104 407.061L82.172 406.693L82.5104 407.061C76.4451 412.639 68.058 422.523 63.4284 432.288C61.1125 437.172 59.7615 441.977 60.0673 446.173C60.3706 450.334 62.303 453.927 66.6436 456.456C70.1025 458.47 72.7648 458.68 74.9274 457.95C77.1185 457.209 78.8986 455.472 80.5133 453.374C81.3175 452.329 82.069 451.21 82.8055 450.102C82.8682 450.008 82.9307 449.914 82.9932 449.82C83.6618 448.813 84.322 447.819 84.9899 446.924C86.4286 444.998 88.0131 443.373 90.0025 443.131C93.9225 442.654 96.6022 444.679 99.0722 446.545C99.2801 446.702 99.4865 446.858 99.6921 447.012C101.038 448.015 102.345 448.91 103.826 449.384C105.287 449.851 106.943 449.917 108.996 449.198M91.6162 370.09L109.161 449.67M91.6162 370.09C97.5007 367.965 102.501 370.25 107.654 372.604C107.897 372.715 108.14 372.826 108.384 372.937C113.748 375.376 119.306 377.645 125.835 374.061C129.181 372.225 130.496 369.069 130.917 365.388C131.264 362.351 131.011 358.873 130.755 355.368C130.703 354.654 130.651 353.939 130.604 353.225C130.323 348.975 130.215 344.788 131.258 341.205C132.29 337.658 134.45 334.697 138.763 332.874C143.551 330.851 148.747 332.815 153.893 335.477C154.979 336.039 156.074 336.638 157.157 337.231C158.588 338.014 159.998 338.785 161.337 339.443C163.708 340.608 166.007 341.499 168.116 341.587L91.6162 370.09ZM108.996 449.198L109.161 449.67M108.996 449.198C108.996 449.198 108.996 449.198 108.996 449.198L109.161 449.67M108.996 449.198C114.854 447.147 117.313 442.05 119.658 437.023L119.754 436.817C120.881 434.401 122 432 123.484 430.086C125.025 428.097 126.981 426.605 129.772 426.117C132.529 425.635 134.927 426.138 137.115 426.986C138.517 427.529 139.874 428.235 141.173 428.911C141.866 429.271 142.542 429.623 143.2 429.937C145.135 430.86 146.992 431.507 148.974 431.377C150.944 431.247 153.116 430.344 155.66 428.005M109.161 449.67C115.317 447.514 117.838 442.108 120.195 437.054C122.496 432.12 124.64 427.521 129.858 426.609C134.207 425.849 137.641 427.637 140.903 429.335C145.564 431.76 149.874 434.003 155.998 428.373M155.66 428.005L155.998 428.373M155.66 428.005C158.769 425.146 159.917 421.838 160.222 418.348C160.456 415.681 160.198 412.943 159.941 410.21C159.858 409.328 159.775 408.446 159.708 407.567C159.439 404.011 159.447 400.514 160.991 397.513C162.551 394.483 165.622 392.055 171.252 390.501C176.901 388.941 180.942 389.623 184.023 391.574C187.075 393.508 189.11 396.643 190.85 399.82C191.306 400.653 191.741 401.485 192.168 402.303C193.392 404.649 194.552 406.87 195.964 408.61C196.905 409.77 197.935 410.683 199.134 411.255C200.327 411.823 201.717 412.068 203.408 411.848C207.11 411.366 209.485 409.38 211.149 406.641C212.83 403.875 213.773 400.36 214.576 396.868C214.706 396.306 214.832 395.743 214.957 395.185C215.599 392.314 216.219 389.545 217.172 387.447C217.745 386.185 218.46 385.114 219.417 384.397C220.39 383.67 221.574 383.338 223.014 383.494C226.525 383.873 229.085 383.142 230.871 381.593C232.665 380.036 233.759 377.584 234.185 374.359C235.041 367.895 233.183 358.568 229.342 348.035L229.811 347.864M155.66 428.005C155.66 428.005 155.66 428.005 155.66 428.005L155.998 428.373M155.998 428.373C161.664 423.162 161.035 416.491 160.436 410.13C159.672 402.02 158.955 394.415 171.385 390.983C183.89 387.53 187.972 395.348 191.703 402.495C194.59 408.024 197.267 413.151 203.472 412.344C211.871 411.251 213.784 402.709 215.449 395.278C216.861 388.972 218.094 383.466 222.961 383.991C237.384 385.549 237.508 368.966 229.811 347.864M229.811 347.864L229.342 348.035C226.913 341.375 220.664 334.849 213.263 330.386C205.858 325.921 197.422 323.592 190.669 325.166C183.913 326.741 180.397 330.808 177.542 334.525C177.314 334.822 177.09 335.117 176.867 335.41C175.707 336.938 174.604 338.39 173.399 339.489C171.939 340.82 170.282 341.678 168.116 341.587L229.811 347.864Z" fill="#FFDC91" stroke="#FFDC91"/>
<path d="M228.191 344.365C224.395 345.16 214.413 342.264 209.058 347.187C203.706 352.109 200.331 359.219 193.33 363.114C177.716 371.803 164.531 363.433 154.833 368.236C147.63 371.803 152.245 379.123 144.71 386.052C137.176 392.981 134.265 386.327 125.09 394.764C116.961 402.239 122.396 407.123 114.343 415.26C102.249 427.481 89.8912 423.147 85.6887 427.43C82.0047 431.183 83.5176 434.987 83.5176 434.987" stroke="#FFB30F" stroke-width="2" stroke-linecap="round" stroke-linejoin="round"/>
<path d="M325.486 503.783C325.486 496.888 385.107 491.299 458.651 491.299C532.197 491.299 591.818 496.888 591.818 503.783C591.818 510.68 532.197 516.267 458.651 516.267C385.107 516.267 325.486 510.68 325.486 503.783Z" fill="#FFDC91"/>
<path d="M309.304 426.129C307.954 424.78 306.123 424.022 304.214 424.022C302.306 424.022 300.475 424.78 299.125 426.129C297.774 427.478 295.943 428.235 294.035 428.235C292.126 428.235 290.296 427.478 288.945 426.129C287.596 424.78 285.766 424.022 283.858 424.022C281.95 424.022 280.12 424.78 278.771 426.129C277.421 427.478 275.591 428.235 273.683 428.235C271.775 428.235 269.945 427.478 268.594 426.129C267.244 424.78 265.413 424.022 263.505 424.022C261.596 424.022 259.765 424.78 258.415 426.129C257.064 427.478 255.234 428.235 253.325 428.235C251.416 428.235 249.586 427.478 248.235 426.129C246.886 424.78 245.056 424.022 243.148 424.022C241.24 424.022 239.411 424.78 238.061 426.129C236.711 427.478 234.881 428.235 232.973 428.235C231.065 428.235 229.235 427.478 227.885 426.129C226.534 424.78 224.704 424.022 222.795 424.022C220.886 424.022 219.055 424.78 217.705 426.129C216.354 427.478 214.524 428.235 212.615 428.235C210.707 428.235 208.876 427.478 207.525 426.129C206.176 424.78 204.346 424.022 202.438 424.022C200.531 424.022 198.701 424.78 197.352 426.129C196.025 427.458 194.231 428.214 192.354 428.234H184.103" stroke="#FFE7B5" stroke-width="3" stroke-linecap="round"/>
<path d="M192.157 422.768L177.102 428.234L192.157 433.7V422.768Z" fill="#B57F0B"/>
<path d="M304.007 196.34L284.892 215.457L274.644 205.209" fill="#FFDC91"/>
<path d="M304.007 196.34L284.892 215.457L274.644 205.209" stroke="#FFDC91" stroke-width="3" stroke-linecap="round" stroke-linejoin="round"/>
<path d="M259.762 204.529C259.762 198.758 261.473 193.117 264.679 188.318C267.885 183.519 272.443 179.779 277.774 177.571C283.106 175.362 288.973 174.784 294.634 175.91C300.294 177.036 305.493 179.815 309.574 183.896C313.655 187.977 316.434 193.176 317.56 198.836C318.686 204.497 318.108 210.364 315.899 215.696C313.691 221.027 309.951 225.585 305.152 228.791C300.353 231.997 294.712 233.708 288.941 233.708C285.109 233.708 281.315 232.954 277.774 231.487C274.234 230.021 271.017 227.872 268.308 225.162C265.598 222.453 263.449 219.236 261.983 215.696C260.516 212.156 259.762 208.361 259.762 204.529Z" fill="#FFDC91" stroke="#FFDC91" stroke-width="3" stroke-linecap="round" stroke-linejoin="round"/>
<path d="M369.318 226.229H104.646V359.875H369.318V226.229Z" fill="#FFB30F"/>
<path d="M359.771 319.781L359.77 266.322C339.738 266.323 323.496 252.646 323.495 235.775L150.467 235.776C150.468 252.645 134.226 266.323 114.192 266.323V319.781C134.226 319.783 150.467 333.459 150.467 350.331L323.496 350.329C323.495 333.459 339.736 319.781 359.771 319.781Z" fill="white"/>
<path d="M195.806 293.053C195.806 284.909 198.221 276.948 202.745 270.176C207.27 263.405 213.701 258.127 221.225 255.011C228.749 251.894 237.028 251.079 245.016 252.668C253.003 254.257 260.34 258.178 266.099 263.937C271.857 269.696 275.779 277.033 277.368 285.02C278.956 293.008 278.141 301.287 275.024 308.811C271.908 316.335 266.63 322.766 259.858 327.29C253.087 331.815 245.126 334.23 236.982 334.23C226.061 334.229 215.588 329.891 207.866 322.169C200.144 314.447 195.806 303.973 195.806 293.053Z" fill="#FFE7B5"/>
<path d="M229.63 292.044C223.54 290.358 223.906 276.181 224.717 274.352C223.372 270.38 229.651 268.523 236.257 266.764C240.267 265.697 254.602 261.964 247.292 272.339C249.21 274.654 251.656 288.218 244.333 292.044C258.139 295.46 258.986 305.364 258.985 316.799H214.977C214.977 305.365 216.356 295.461 229.63 292.044Z" fill="#FFCC5E"/>
<path d="M188.646 293.052H153.332" stroke="#FFB30F" stroke-width="4" stroke-linecap="round" stroke-linejoin="round"/>
<path d="M179.068 278.733L162.91 278.734" stroke="#FFB30F" stroke-width="4" stroke-linecap="round" stroke-linejoin="round"/>
<path d="M179.068 307.371H162.909" stroke="#FFB30F" stroke-width="4" stroke-linecap="round" stroke-linejoin="round"/>
<path d="M285.318 293.053H320.632" stroke="#FFB30F" stroke-width="4" stroke-linecap="round" stroke-linejoin="round"/>
<path d="M294.896 278.733H311.054" stroke="#FFB30F" stroke-width="4" stroke-linecap="round" stroke-linejoin="round"/>
<path d="M294.896 307.373L311.053 307.371" stroke="#FFB30F" stroke-width="4" stroke-linecap="round" stroke-linejoin="round"/>
<path d="M419.117 285.637H236.536C232.299 285.637 228.864 289.072 228.864 293.309V405.699C228.864 409.936 232.299 413.371 236.536 413.371H419.117C423.354 413.371 426.788 409.936 426.788 405.699V293.309C426.788 289.072 423.354 285.637 419.117 285.637Z" fill="#E8A30E"/>
<path d="M228.865 383.451V405.699C228.871 407.732 229.681 409.68 231.119 411.117C232.556 412.555 234.504 413.365 236.537 413.371H329.745L410.084 333.032H426.789V293.309C426.783 291.276 425.973 289.328 424.536 287.891C423.099 286.453 421.151 285.643 419.118 285.637H371.555L273.741 383.451H228.865Z" fill="#FFC23F"/>
<path d="M237.196 304.818C237.196 302.672 237.832 300.574 239.024 298.79C240.217 297.006 241.911 295.615 243.893 294.794C245.876 293.973 248.057 293.758 250.162 294.177C252.266 294.595 254.199 295.628 255.717 297.146C257.234 298.663 258.267 300.596 258.686 302.701C259.105 304.805 258.89 306.986 258.069 308.969C257.248 310.951 255.857 312.646 254.073 313.838C252.289 315.03 250.191 315.666 248.045 315.666C245.168 315.666 242.409 314.523 240.374 312.489C238.339 310.454 237.196 307.695 237.196 304.818Z" fill="#B57F0B"/>
<path d="M327.572 298.555H270.547V311.08H327.572V298.555Z" fill="#6B4B06"/>
<path d="M411.958 362.739H376.534V373.347H411.958V362.739Z" fill="#FFB30F"/>
<path d="M367.678 362.739H332.255V373.347H367.678V362.739Z" fill="#FFB30F"/>
<path d="M323.398 362.739H287.976V373.347H323.398V362.739Z" fill="#FFB30F"/>
<path d="M279.12 362.739H243.696V373.347H279.12V362.739Z" fill="#FFB30F"/>
<path d="M345.472 383.068H322.969V389.462H345.472V383.068Z" fill="#8C6208"/>
<path d="M345.472 391.507H250.601V397.9H345.472V391.507Z" fill="#8C6208"/>
<path d="M285.123 399.946H250.601V406.339H285.123V399.946Z" fill="#8C6208"/>
<path d="M345.473 406.339V399.946H324.503H303.534V406.339H345.473Z" fill="#8C6208"/>
<path d="M297.653 399.946H291.004V406.339H297.653V399.946Z" fill="#8C6208"/>
<path d="M245.997 352.188H275.915" stroke="#DC8B00" stroke-linecap="round" stroke-linejoin="round"/>
<path d="M492.757 267.593C492.121 262.141 484.353 257.914 479.428 260.274C474.503 262.634 468.901 267.828 468.952 279.611C469.085 310.361 463.236 326.824 443.223 351.457C443.223 351.457 447.448 356.161 449.277 358.475C492.745 319.43 494.89 285.867 492.757 267.593Z" fill="#FFD03E"/>
<path d="M471.722 267.126C466.552 277.971 478.954 306.351 477.995 313.96C477.036 321.567 472.021 332.282 463.44 344.407C472.517 334.355 478.962 324.78 483.477 315.873C483.527 315.772 483.572 315.683 483.609 315.609C483.659 315.509 483.707 315.41 483.757 315.31L483.759 315.307C484.58 311.342 472.778 264.911 471.722 267.126Z" fill="#ED9F00"/>
<path d="M448.636 358.671C447.308 356.915 442.77 350.928 442.359 350.523C443.699 348.743 445.168 347.064 446.756 345.501C448.117 346.843 455.052 354.399 455.048 354.724C454.462 355.269 451.134 357.641 449.679 358.671H448.636Z" fill="#FCBA06"/>
<path d="M433.436 337.414C422.003 344.893 411.655 350.71 398.094 347.874C385.727 345.287 366.328 341.23 366.328 341.23L352.804 405.887C344.408 446.026 376.595 490.889 398.601 503.96L398.604 503.959L433.438 337.419L433.436 337.414Z" fill="#FFDC91"/>
<path d="M461.623 361.162C448.435 358.404 441.455 349.674 433.439 337.419L398.604 503.959C424.008 500.802 471.475 472.603 479.87 432.465L493.394 367.808C493.394 367.808 474.772 363.912 461.623 361.162Z" fill="#FFCC5E"/>
<g style="mix-blend-mode:multiply">
<path d="M479.87 432.465L493.394 367.808C493.394 367.808 478.732 364.742 466.241 362.129C460.14 391.297 455.535 413.309 451.901 430.688C446.859 454.792 430.745 486.587 398.604 503.96C424.008 500.803 471.475 472.603 479.87 432.465Z" fill="#E9EDF7"/>
</g>
<path d="M207.938 145.273L203.909 147.848C202.327 148.844 200.504 149.393 198.635 149.437C190.856 149.708 182.57 142.439 180.168 133.236C178.384 126.402 180.336 120.392 184.644 117.638L188.673 115.062C184.365 117.817 182.411 123.827 184.196 130.66C186.599 139.863 194.885 147.134 202.663 146.861C204.532 146.818 206.355 146.269 207.938 145.273Z" fill="#E19100"/>
<path d="M193.948 113.474C201.726 113.202 210.013 120.472 212.414 129.676C214.817 138.878 210.441 146.59 202.663 146.861C194.885 147.134 186.599 139.863 184.196 130.66C181.794 121.457 186.168 113.746 193.948 113.474Z" fill="#FCBA06"/>
<path d="M196.669 116.971L197.253 119.203C199.616 119.766 201.859 122.044 202.589 124.839L200.197 124.922C199.75 123.202 198.203 121.845 196.748 121.895C195.299 121.946 194.484 123.385 194.933 125.107C195.157 125.948 195.625 126.703 196.278 127.278C196.844 127.816 197.593 128.119 198.374 128.125C201.147 128.028 204.098 130.617 204.954 133.897C205.682 136.684 204.658 139.084 202.627 139.792L203.165 141.854L200.773 141.938L200.236 139.875C197.882 139.322 195.635 137.035 194.906 134.248L197.298 134.165C197.745 135.878 199.291 137.235 200.739 137.184C202.195 137.132 203.01 135.694 202.564 133.981C202.113 132.26 200.567 130.904 199.112 130.954C197.621 130.943 196.19 130.367 195.108 129.341C193.861 128.241 192.968 126.797 192.542 125.19C191.813 122.395 192.838 120.004 194.861 119.288L194.278 117.055L196.669 116.971Z" fill="#FFE357"/>
<g style="mix-blend-mode:screen">
<path d="M205.644 118.444C202.213 115.264 198.015 113.332 193.948 113.474C186.168 113.746 181.794 121.457 184.196 130.66C185.047 133.845 186.558 136.816 188.631 139.38L205.644 118.444Z" fill="#4C4C4C"/>
</g>
<g style="mix-blend-mode:screen">
<path d="M368.455 449.446C367.311 448.008 365.762 446.948 364.008 446.403C356.862 444.04 346.479 448.335 340.863 455.973C338.923 458.461 337.72 461.442 337.39 464.579L368.455 449.446Z" fill="#4C4C4C"/>
</g>
<path d="M471.727 355.217C470.64 356.442 470.609 357.508 467.697 358.254C464.785 359.001 463.621 358.886 462.277 359.281C460.933 359.676 456.784 360.483 457.053 361.113C457.322 361.743 462.223 361.272 462.232 361.786C462.241 362.3 452.026 369.681 454.253 370.819C456.479 371.956 462.884 373 467.979 369.254C471.385 366.749 473.223 362.871 475.586 361.603C476.96 358.216 474.882 355.764 471.727 355.217Z" fill="#F7D3C9"/>
<path d="M492.16 332.779C492.16 353.485 492.233 446.304 492.233 488.701H499.756C503.982 478.19 532.151 352.775 535.008 332.779H492.16Z" fill="#8C6208"/>
<path d="M499.756 491.453V488.7H492.233C492.176 490.4 491.886 492.084 491.371 493.706C493.326 494.458 496.188 492.517 499.756 491.453Z" fill="#F0CCC0"/>
<path d="M499.756 491.453C496.188 492.517 493.326 494.458 491.371 493.706C490.334 494.458 475.077 499.946 473.523 501.006C471.935 502.096 472.167 503.783 473.849 503.783C476.31 503.783 496.569 502.89 496.569 502.89C496.98 503.336 497.313 503.783 497.313 503.783H501.942C503.324 501.39 502.949 494.205 499.756 491.453Z" fill="#B57F0B"/>
<path d="M555.076 491.453V488.7H547.552C547.495 490.4 547.205 492.084 546.69 493.706C548.647 494.458 551.508 492.517 555.076 491.453Z" fill="#F0CCC0"/>
<path d="M555.076 491.453C551.508 492.517 548.647 494.458 546.691 493.706C545.654 494.458 530.397 499.946 528.843 501.006C527.256 502.096 527.488 503.783 529.17 503.783C531.628 503.783 551.89 502.89 551.89 502.89C552.299 503.336 552.631 503.783 552.631 503.783H557.263C558.643 501.39 558.269 494.205 555.076 491.453Z" fill="#B57F0B"/>
<path d="M543.37 324.54C555.075 351.148 555.076 446.304 555.076 488.7H547.552C543.327 478.19 507.654 352.774 504.799 332.779C510.511 332.779 543.37 324.54 543.37 324.54Z" fill="#B57F0B"/>
<path d="M543.37 324.54C532.632 345.874 492.163 345.874 492.163 345.874C490.878 321.925 467.313 278.268 471.721 264.441C476.938 248.079 484.758 246.621 498.614 252.6C517.302 260.663 539.246 308.183 543.37 324.54Z" fill="#FCBA06"/>
<path d="M483.359 236.296C484.043 238.909 487.689 248.43 490.878 250.303C489.814 252.064 482.427 256.88 475.464 256.859C476.122 254.756 477.738 252.874 474.97 250.703C471.956 248.338 470.562 253.679 466.156 249.592C461.017 244.829 455.566 233.573 457.064 229.238C458.739 224.387 463.193 217.502 473.541 219.096C481.985 220.395 481.972 230.986 483.359 236.296Z" fill="#F8D8D0"/>
<path d="M474.593 232.652L474.594 232.652C475.094 232.445 475.348 232.081 475.47 231.584C475.6 231.058 475.573 230.41 475.491 229.715C475.463 229.475 475.426 229.22 475.39 228.966C475.328 228.537 475.267 228.11 475.247 227.767C475.231 227.484 475.237 227.185 475.314 226.924C475.397 226.645 475.58 226.363 475.932 226.24L476.096 226.712M474.593 232.652L448.277 224.26C448.797 223.285 449.439 222.736 450.133 222.413C450.841 222.085 451.634 221.976 452.481 221.939C452.828 221.924 453.174 221.921 453.524 221.918C453.601 221.917 453.68 221.917 453.758 221.916C454.183 221.912 454.614 221.903 455.03 221.866C455.857 221.793 456.69 221.601 457.361 221.036L457.361 221.036C458.545 220.038 458.886 218.763 459.177 217.676C459.239 217.445 459.298 217.222 459.363 217.013C459.555 216.393 459.792 215.848 460.22 215.377C460.646 214.91 461.295 214.479 462.373 214.155L462.373 214.155C463.349 213.861 464.001 213.919 464.479 214.109C464.97 214.304 465.347 214.663 465.734 215.114C465.82 215.213 465.909 215.321 466.001 215.433C466.296 215.792 466.624 216.191 466.992 216.491C467.517 216.918 468.166 217.191 469.039 217.083L469.039 217.083C469.9 216.975 470.695 216.528 471.433 216.036C471.728 215.84 472.008 215.64 472.286 215.443C472.745 215.117 473.198 214.795 473.696 214.499C474.471 214.037 475.266 213.698 476.137 213.629C476.999 213.56 477.981 213.752 479.139 214.432C479.976 214.923 480.397 215.451 480.618 215.994C480.845 216.554 480.882 217.18 480.856 217.912C480.848 218.135 480.833 218.369 480.818 218.612C480.738 219.904 480.642 221.443 481.453 222.964L481.453 222.965C481.625 223.288 481.911 223.622 482.229 223.951C482.55 224.283 482.937 224.644 483.342 225.02L483.354 225.032C484.183 225.803 485.099 226.658 485.835 227.596C486.572 228.535 487.086 229.508 487.169 230.503C487.249 231.472 486.927 232.543 485.822 233.713C484.662 234.94 483.821 235.361 483.24 235.405C482.71 235.445 482.266 235.175 481.857 234.597C481.442 234.01 481.123 233.182 480.863 232.304C480.691 231.721 480.556 231.155 480.433 230.643C480.369 230.379 480.309 230.129 480.25 229.899L480.249 229.898C479.893 228.53 479.24 227.493 478.466 226.853C477.698 226.218 476.768 225.946 475.93 226.241L476.096 226.712M474.593 232.652C474.468 232.704 474.371 232.701 474.275 232.668C474.164 232.629 474.026 232.54 473.862 232.369C473.526 232.021 473.192 231.462 472.827 230.791C472.756 230.661 472.684 230.527 472.611 230.391C472.322 229.853 472.016 229.284 471.694 228.801C471.3 228.211 470.807 227.626 470.168 227.41M474.593 232.652L479.766 230.024C479.096 227.45 477.343 226.274 476.096 226.712M476.096 226.712C475.595 226.887 475.724 227.78 475.879 228.856C476.11 230.45 476.399 232.447 474.784 233.114C473.74 233.547 472.964 232.104 472.164 230.616C471.514 229.407 470.847 228.167 470.008 227.883M470.008 227.883L470.168 227.41M470.008 227.883C467.795 227.134 461.941 228.517 456.815 231.238L470.008 227.883ZM470.168 227.41C469.522 227.191 468.664 227.141 467.698 227.21C466.722 227.279 465.594 227.473 464.383 227.774C461.963 228.376 459.179 229.417 456.58 230.797M470.168 227.41L456.58 230.797M456.58 230.797C454.239 232.038 451.645 231.38 449.875 229.87C448.089 228.347 447.293 226.108 448.277 224.26L456.58 230.797Z" fill="#FFCC5E" stroke="#FFC23F"/>
<path d="M489.204 248.322C488.063 249.6 479.795 254.689 476.029 254.12C475.707 255 475.516 255.923 475.464 256.859C478.101 257.289 486.629 255.471 491.074 250.38C490.335 249.556 489.204 248.322 489.204 248.322ZM493.532 260.89C489.59 264.671 485.892 271.355 489.621 282.532C496.78 303.993 498.013 318.902 490.584 335.391C491.395 338.836 491.923 342.342 492.164 345.874C492.164 345.874 494.791 345.873 498.88 345.521C524.322 310.543 515.215 278.216 508.48 263.68C506.173 258.699 497.474 257.11 493.532 260.89Z" fill="#ED9F00"/>
<path d="M508.481 263.68C506.52 258.553 497.951 256.37 493.759 259.871C489.567 263.372 485.419 269.787 488.372 281.194C496.078 310.962 491.366 332.644 470.62 356.663C470.62 356.663 474.409 361.766 476.167 364.134C520.793 326.418 515.051 280.865 508.481 263.68Z" fill="#FFD03E"/>
<path d="M476.161 364.527C476.161 364.527 470.252 356.191 469.785 355.702C471.178 353.964 472.698 352.33 474.331 350.815C475.651 352.198 482.356 359.96 482.341 360.285C481.567 360.963 476.161 364.527 476.161 364.527ZM179.144 473.316L170.986 470.075C170.673 469.95 170.332 469.91 169.998 469.959C169.665 470.008 169.35 470.144 169.085 470.353L162.198 475.797C161.933 476.006 161.728 476.281 161.604 476.595C161.479 476.908 161.439 477.249 161.488 477.583L162.761 486.269C162.809 486.603 162.945 486.918 163.154 487.183C163.363 487.447 163.638 487.652 163.952 487.776L172.109 491.018C172.423 491.143 172.763 491.182 173.097 491.134C173.431 491.085 173.746 490.949 174.01 490.74L180.898 485.296C181.162 485.086 181.367 484.811 181.492 484.498C181.616 484.185 181.656 483.844 181.607 483.51L180.336 474.823C180.287 474.489 180.151 474.175 179.942 473.91C179.733 473.646 179.457 473.441 179.144 473.316Z" fill="#FCBA06"/>
<path d="M284.574 88.3163L275.244 98.2892C275.014 98.5354 274.852 98.838 274.776 99.1665C274.699 99.4951 274.71 99.838 274.809 100.161C274.907 100.484 275.088 100.775 275.335 101.005C275.581 101.235 275.884 101.397 276.212 101.473L289.514 104.566C289.843 104.643 290.186 104.632 290.508 104.533C290.831 104.435 291.122 104.254 291.353 104.008C291.583 103.762 291.745 103.459 291.822 103.13C291.898 102.802 291.887 102.459 291.789 102.136L287.815 89.0699C287.717 88.747 287.536 88.4556 287.29 88.2251C287.044 87.9945 286.741 87.8328 286.412 87.7564C286.084 87.68 285.741 87.6915 285.418 87.7898C285.095 87.8881 284.804 88.0697 284.574 88.3163Z" fill="#E8A30E"/>
</g>
</svg>
