<svg width="48" height="48" viewBox="0 0 48 48" fill="none" xmlns="http://www.w3.org/2000/svg">
<rect x="4" y="4" width="40" height="40" rx="20" fill="#D1FAE3"/>
<rect x="4" y="4" width="40" height="40" rx="20" stroke="#ECFDF4" stroke-width="8"/>
<path d="M26.0833 22.5417C26.0833 21.7333 25.4583 21.0833 24.6916 21.0833H23.125C22.4583 21.0833 21.9166 21.65 21.9166 22.3583C21.9166 23.1167 22.25 23.3917 22.7416 23.5667L25.25 24.4417C25.7416 24.6167 26.075 24.8833 26.075 25.65C26.075 26.35 25.5333 26.925 24.8667 26.925H23.3C22.5333 26.925 21.9083 26.275 21.9083 25.4667" stroke="#05B354" stroke-width="1.5" stroke-linecap="round" stroke-linejoin="round"/>
<path d="M24 27.75V20.25" stroke="#05B354" stroke-width="1.5" stroke-linecap="round" stroke-linejoin="round"/>
<path d="M15.6666 24C15.6666 19.4 19.4 15.6667 24 15.6667C28.6 15.6667 32.3333 19.4 32.3333 24C32.3333 28.6 28.6 32.3333 24 32.3333" stroke="#05B354" stroke-width="1.5" stroke-linecap="round" stroke-linejoin="round"/>
<path d="M15.6667 29V32.3333H19" stroke="#05B354" stroke-width="1.5" stroke-linecap="round" stroke-linejoin="round"/>
<path d="M19.8333 28.1667L15.6666 32.3333" stroke="#05B354" stroke-width="1.5" stroke-linecap="round" stroke-linejoin="round"/>
</svg>
