<svg width="48" height="48" viewBox="0 0 48 48" fill="none" xmlns="http://www.w3.org/2000/svg">
<rect x="4" y="4" width="40" height="40" rx="20" fill="#FAEDD1"/>
<rect x="4" y="4" width="40" height="40" rx="20" stroke="#FDF8EC" stroke-width="8"/>
<path d="M21.9167 25.4583C21.9167 26.2667 22.5417 26.9167 23.3084 26.9167H24.875C25.5417 26.9167 26.0834 26.35 26.0834 25.6417C26.0834 24.8833 25.75 24.6083 25.2584 24.4333L22.75 23.5583C22.2584 23.3833 21.925 23.1167 21.925 22.35C21.925 21.65 22.4667 21.075 23.1333 21.075H24.7C25.4667 21.075 26.0917 21.725 26.0917 22.5333" stroke="#FFB30F" stroke-width="1.5" stroke-linecap="round" stroke-linejoin="round"/>
<path d="M24 20.25V27.75" stroke="#FFB30F" stroke-width="1.5" stroke-linecap="round" stroke-linejoin="round"/>
<path d="M32.3334 24C32.3334 28.6 28.6 32.3333 24 32.3333C19.4 32.3333 15.6667 28.6 15.6667 24C15.6667 19.4 19.4 15.6667 24 15.6667" stroke="#FFB30F" stroke-width="1.5" stroke-linecap="round" stroke-linejoin="round"/>
<path d="M32.3333 19V15.6667H29" stroke="#FFB30F" stroke-width="1.5" stroke-linecap="round" stroke-linejoin="round"/>
<path d="M28.1667 19.8333L32.3334 15.6667" stroke="#FFB30F" stroke-width="1.5" stroke-linecap="round" stroke-linejoin="round"/>
</svg>
