<svg width="121" height="120" viewBox="0 0 121 120" fill="none" xmlns="http://www.w3.org/2000/svg">
<rect x="0.5" width="120" height="120" rx="60" fill="#FAF7EA"/>
<path d="M61 74C61.7933 74 62.4583 73.7317 62.995 73.195C63.5317 72.6583 63.8 71.9933 63.8 71.2C63.8 70.4067 63.5317 69.7417 62.995 69.205C62.4583 68.6683 61.7933 68.4 61 68.4C60.2067 68.4 59.5417 68.6683 59.005 69.205C58.4683 69.7417 58.2 70.4067 58.2 71.2C58.2 71.9933 58.4683 72.6583 59.005 73.195C59.5417 73.7317 60.2067 74 61 74ZM58.2 62.8H63.8V46H58.2V62.8ZM61 88C57.1267 88 53.4867 87.265 50.08 85.795C46.6733 84.325 43.71 82.33 41.19 79.81C38.67 77.29 36.675 74.3267 35.205 70.92C33.735 67.5133 33 63.8733 33 60C33 56.1267 33.735 52.4867 35.205 49.08C36.675 45.6733 38.67 42.71 41.19 40.19C43.71 37.67 46.6733 35.675 50.08 34.205C53.4867 32.735 57.1267 32 61 32C64.8733 32 68.5133 32.735 71.92 34.205C75.3267 35.675 78.29 37.67 80.81 40.19C83.33 42.71 85.325 45.6733 86.795 49.08C88.265 52.4867 89 56.1267 89 60C89 63.8733 88.265 67.5133 86.795 70.92C85.325 74.3267 83.33 77.29 80.81 79.81C78.29 82.33 75.3267 84.325 71.92 85.795C68.5133 87.265 64.8733 88 61 88ZM61 82.4C67.2533 82.4 72.55 80.23 76.89 75.89C81.23 71.55 83.4 66.2533 83.4 60C83.4 53.7467 81.23 48.45 76.89 44.11C72.55 39.77 67.2533 37.6 61 37.6C54.7467 37.6 49.45 39.77 45.11 44.11C40.77 48.45 38.6 53.7467 38.6 60C38.6 66.2533 40.77 71.55 45.11 75.89C49.45 80.23 54.7467 82.4 61 82.4Z" fill="url(#paint0_linear_2745_29949)"/>
<defs>
<linearGradient id="paint0_linear_2745_29949" x1="33" y1="82.6154" x2="97.3203" y2="67.6414" gradientUnits="userSpaceOnUse">
<stop offset="0.102194" stop-color="#FFB30F"/>
<stop offset="1" stop-color="#EDCB00"/>
</linearGradient>
</defs>
</svg>
