<svg width="24" height="24" viewBox="0 0 24 24" fill="none" xmlns="http://www.w3.org/2000/svg">
<path d="M21.8114 19.4669L13.3919 3.83142C12.7951 2.72286 11.2054 2.72286 10.6081 3.83142L2.1892 19.4669C2.05963 19.7076 1.99466 19.9777 2.00065 20.251C2.00664 20.5242 2.08338 20.7913 2.22338 21.026C2.36337 21.2608 2.56184 21.4552 2.79941 21.5904C3.03698 21.7255 3.30553 21.7968 3.57886 21.7972H20.4192C20.6928 21.7972 20.9616 21.7262 21.1995 21.5913C21.4374 21.4563 21.6363 21.2619 21.7765 21.0271C21.9168 20.7922 21.9938 20.525 21.9999 20.2516C22.006 19.9781 21.941 19.7077 21.8114 19.4669ZM12.0003 19.3765C11.8049 19.3765 11.6138 19.3185 11.4514 19.21C11.2889 19.1014 11.1622 18.9471 11.0875 18.7666C11.0127 18.586 10.9931 18.3874 11.0312 18.1957C11.0694 18.0041 11.1635 17.828 11.3016 17.6898C11.4398 17.5517 11.6159 17.4576 11.8075 17.4194C11.9992 17.3813 12.1978 17.4009 12.3784 17.4757C12.5589 17.5504 12.7132 17.6771 12.8218 17.8396C12.9304 18.002 12.9883 18.1931 12.9883 18.3885C12.9883 18.6505 12.8842 18.9018 12.6989 19.0871C12.5136 19.2724 12.2623 19.3765 12.0003 19.3765ZM13.0733 9.43945L12.7897 15.4664C12.7897 15.676 12.7064 15.8771 12.5582 16.0253C12.41 16.1735 12.2089 16.2568 11.9993 16.2568C11.7897 16.2568 11.5886 16.1735 11.4404 16.0253C11.2921 15.8771 11.2089 15.676 11.2089 15.4664L10.9253 9.44192C10.9189 9.29795 10.9416 9.15418 10.992 9.01918C11.0424 8.88417 11.1194 8.76068 11.2185 8.65608C11.3176 8.55148 11.4368 8.4679 11.5689 8.41034C11.701 8.35277 11.8433 8.32239 11.9874 8.321H11.9978C12.1429 8.32093 12.2865 8.35025 12.4199 8.40719C12.5533 8.46413 12.6739 8.54752 12.7742 8.65232C12.8745 8.75712 12.9525 8.88116 13.0036 9.01695C13.0547 9.15274 13.0777 9.29747 13.0713 9.44241L13.0733 9.43945Z" fill="#F59B00"/>
</svg>
