<svg width="24" height="24" viewBox="0 0 24 24" fill="none" xmlns="http://www.w3.org/2000/svg">
<g clip-path="url(#clip0_1574_68170)">
<path d="M7.74984 19.166C8.99984 19.916 10.4998 20.3327 11.9998 20.3327C16.5832 20.3327 20.3332 16.5827 20.3332 11.9993C20.3332 7.41602 16.5832 3.66602 11.9998 3.66602C7.4165 3.66602 3.6665 7.41602 3.6665 11.9993C3.6665 13.4993 4.08317 14.916 4.74984 16.166L4.21706 18.2152C3.97365 19.1513 4.84016 19.9974 5.77024 19.7316L7.74984 19.166Z" stroke="white" stroke-width="1.875" stroke-miterlimit="10" stroke-linecap="round" stroke-linejoin="round"/>
<path d="M15.75 14.3737C15.75 14.5087 15.72 14.6475 15.6561 14.7825C15.5923 14.9175 15.5096 15.045 15.4007 15.165C15.2167 15.3675 15.0139 15.5137 14.7848 15.6075C14.5595 15.7012 14.3153 15.75 14.0525 15.75C13.6694 15.75 13.26 15.66 12.8281 15.4762C12.3962 15.2925 11.9643 15.045 11.5362 14.7337C11.1043 14.4187 10.6949 14.07 10.3043 13.6837C9.9175 13.2937 9.56823 12.885 9.25651 12.4575C8.94855 12.03 8.70068 11.6025 8.52041 11.1787C8.34014 10.7512 8.25 10.3425 8.25 9.9525C8.25 9.6975 8.29507 9.45375 8.3852 9.22875C8.47534 9 8.61805 8.79 8.8171 8.6025C9.05746 8.36625 9.32036 8.25 9.59827 8.25C9.70343 8.25 9.80859 8.2725 9.90248 8.3175C10.0001 8.3625 10.0865 8.43 10.1541 8.5275L11.0254 9.75375C11.093 9.8475 11.1418 9.93375 11.1756 10.0162C11.2094 10.095 11.2282 10.1737 11.2282 10.245C11.2282 10.335 11.2019 10.425 11.1493 10.5112C11.1005 10.5975 11.0292 10.6875 10.939 10.7775L10.6536 11.0737C10.6123 11.115 10.5935 11.1637 10.5935 11.2237C10.5935 11.2537 10.5973 11.28 10.6048 11.31C10.616 11.34 10.6273 11.3625 10.6348 11.385C10.7024 11.5087 10.8189 11.67 10.9841 11.865C11.1531 12.06 11.3334 12.2587 11.5287 12.4575C11.7315 12.6562 11.9268 12.84 12.1258 13.0087C12.3211 13.1737 12.4826 13.2862 12.6103 13.3537C12.6291 13.3612 12.6516 13.3725 12.6779 13.3837C12.7079 13.395 12.738 13.3987 12.7718 13.3987C12.8356 13.3987 12.8845 13.3762 12.9258 13.335L13.2112 13.0537C13.3051 12.96 13.3952 12.8887 13.4816 12.8437C13.568 12.7912 13.6544 12.765 13.7482 12.765C13.8196 12.765 13.8947 12.78 13.9773 12.8137C14.06 12.8475 14.1463 12.8962 14.2402 12.96L15.4833 13.8412C15.581 13.9087 15.6486 13.9875 15.6899 14.0812C15.7275 14.175 15.75 14.2687 15.75 14.3737Z" stroke="white" stroke-width="1.875" stroke-miterlimit="10"/>
</g>
<defs>
<clipPath id="clip0_1574_68170">
<rect width="24" height="24" fill="white"/>
</clipPath>
</defs>
</svg>
