<svg width="40" height="40" viewBox="0 0 40 40" fill="none" xmlns="http://www.w3.org/2000/svg">
<rect width="40" height="40" rx="20" fill="#FBF7EE"/>
<path d="M21 17H15" stroke="url(#paint0_linear_3465_46534)" stroke-width="1.5" stroke-linecap="round" stroke-linejoin="round"/>
<path d="M30.0002 18.97V21.03C30.0002 21.58 29.5602 22.03 29.0002 22.05H27.0402C25.9602 22.05 24.9702 21.26 24.8802 20.18C24.8202 19.55 25.0602 18.96 25.4802 18.55C25.8502 18.17 26.3602 17.95 26.9202 17.95H29.0002C29.5602 17.97 30.0002 18.42 30.0002 18.97Z" stroke="url(#paint1_linear_3465_46534)" stroke-width="1.5" stroke-linecap="round" stroke-linejoin="round"/>
<path d="M25.48 18.55C25.06 18.96 24.82 19.55 24.88 20.18C24.97 21.26 25.96 22.05 27.04 22.05H29V23.5C29 26.5 27 28.5 24 28.5H15C12 28.5 10 26.5 10 23.5V16.5C10 13.78 11.64 11.88 14.19 11.56C14.45 11.52 14.72 11.5 15 11.5H24C24.26 11.5 24.51 11.51 24.75 11.55C27.33 11.85 29 13.76 29 16.5V17.95H26.92C26.36 17.95 25.85 18.17 25.48 18.55Z" stroke="url(#paint2_linear_3465_46534)" stroke-width="1.5" stroke-linecap="round" stroke-linejoin="round"/>
<defs>
<linearGradient id="paint0_linear_3465_46534" x1="15" y1="17.9038" x2="17.4618" y2="14.4652" gradientUnits="userSpaceOnUse">
<stop offset="0.102194" stop-color="#FFB30F"/>
<stop offset="1" stop-color="#EDCB00"/>
</linearGradient>
<linearGradient id="paint1_linear_3465_46534" x1="24.8711" y1="21.6558" x2="30.596" y2="19.9884" gradientUnits="userSpaceOnUse">
<stop offset="0.102194" stop-color="#FFB30F"/>
<stop offset="1" stop-color="#EDCB00"/>
</linearGradient>
<linearGradient id="paint2_linear_3465_46534" x1="10" y1="26.8654" x2="31.547" y2="21.259" gradientUnits="userSpaceOnUse">
<stop offset="0.102194" stop-color="#FFB30F"/>
<stop offset="1" stop-color="#EDCB00"/>
</linearGradient>
</defs>
</svg>
